<?xml version="1.0" encoding="UTF-8"?>
<!DOCTYPE svg PUBLIC "-//W3C//DTD SVG 1.1//EN" "http://www.w3.org/Graphics/SVG/1.1/DTD/svg11.dtd">
<!-- Creator: CorelDRAW 2017 -->
<svg xmlns="http://www.w3.org/2000/svg" xml:space="preserve" width="264.6mm" height="238.97mm" version="1.1" style="shape-rendering:geometricPrecision; text-rendering:geometricPrecision; image-rendering:optimizeQuality; fill-rule:evenodd; clip-rule:evenodd"
viewBox="0 0 26460 23897"
 xmlns:xlink="http://www.w3.org/1999/xlink">
 <defs>
  <style type="text/css">
   <![CDATA[
    .fil4 {fill:#891A1A}
    .fil0 {fill:#A08C53}
    .fil3 {fill:#DC8B4A}
    .fil2 {fill:#F8E9A1}
    .fil1 {fill:#FEC162}
   ]]>
  </style>
 </defs>
 <g id="Capa_x0020_1">
  <metadata id="CorelCorpID_0Corel-Layer"/>
  <path class="fil0" d="M22844 23154c515,-242 409,-620 63,-1498 110,-332 531,-614 457,-722 -85,-124 -273,-344 -370,-773 -79,-1014 94,-2756 263,-3131 526,-249 2611,62 2861,-235l-2724 -5037c-630,87 -6565,-290 -9466,9 -3395,147 -5337,55 -5487,251 -176,14 -6143,1183 -7173,1663 -429,818 -761,2722 -954,4225 1231,-191 1302,-172 1932,-282 14,792 697,2482 405,3129 -127,281 -390,521 -473,794 211,81 335,223 528,355 697,478 432,84 294,1111 2726,749 16269,941 19845,140z"/>
  <path class="fil1" d="M8545 4568c-1066,-187 -2304,-17 -3402,83 -122,556 1073,2904 1522,3521 179,246 317,314 347,697 38,493 151,1317 444,1591 347,635 519,1198 930,1354 158,211 203,188 549,173 6322,-279 6664,-410 9676,-306 2519,-3336 48,-6440 -1195,-7527 -3318,-2204 -7074,-1085 -8871,413z"/>
  <path class="fil2" d="M14828 2896c204,101 667,187 914,278 288,106 593,259 845,338 -96,-781 -1303,-1912 -1730,-2041l-29 1425z"/>
  <path class="fil2" d="M7735 5828l-1652 -176c60,417 725,1625 946,1846 99,-128 697,-1511 707,-1669z"/>
  <path class="fil3" d="M11181 3268c242,-31 490,263 659,397 321,254 888,725 1364,1174 520,492 654,818 1051,1269 179,202 409,366 661,288 153,-414 -323,-1213 -783,-1823 -200,-266 -1113,-1334 -1377,-1493 -100,-60 -251,-123 -212,-156 -349,19 -1156,137 -1363,343z"/>
  <path class="fil3" d="M9644 3911c168,199 1203,1002 1518,1314 451,446 886,179 574,-443 -277,-551 -1085,-1163 -1127,-1261 -273,82 -776,226 -965,389z"/>
  <path class="fil3" d="M14603 3062c-191,-133 -253,66 -527,23l1166 1472c385,480 1002,-20 2,-932 -220,-200 -425,-345 -641,-563z"/>
  <path class="fil4" d="M22171 21311c-2,-217 -18,-209 -253,-263 -702,-162 -2498,-391 -3197,-481 -368,-48 -3574,-515 -3666,-362 -165,271 484,259 703,285l4622 592c304,45 601,90 897,140 252,42 698,227 893,90z"/>
  <path class="fil4" d="M20775 22266c363,0 983,36 1247,-56 -17,-372 -122,-234 -1092,-234l-5271 -48c-192,-3 -612,-79 -698,86 -123,236 270,201 437,201 259,0 519,5 778,8l4599 43z"/>
  <path class="fil4" d="M6083 5652l1652 176c-9,158 -608,1541 -707,1669 -220,-221 -886,-1429 -946,-1846zm1060 2355c42,-42 982,-2196 970,-2426 -286,-89 -1114,-106 -1499,-153 -718,-87 -1065,-378 -762,507 182,532 558,1158 853,1630 194,310 207,416 438,442z"/>
  <path class="fil4" d="M2814 21344c210,174 3078,-76 3545,-102l2634 -145c189,-10 832,38 702,-225 -88,-179 -1483,-16 -1727,-2 -597,33 -1200,66 -1800,98l-2655 146c-310,16 -681,-62 -699,231z"/>
  <path class="fil4" d="M5066 22448c728,41 3653,252 3980,163 12,-318 -132,-255 -465,-265l-4085 -218c-431,-29 -531,-86 -600,77 -113,268 774,220 1170,243z"/>
  <path class="fil4" d="M13102 9849c45,341 503,552 976,460 1027,-200 1030,-859 1737,-795 239,22 587,134 772,113 340,-39 764,-534 625,-821 -56,-115 -111,-140 -198,-44 -202,223 -57,687 -681,547 -663,-149 -882,-172 -1197,99 -208,179 -605,458 -931,568 -731,248 -695,-165 -951,-252 -143,-49 -170,-12 -152,126z"/>
  <path class="fil4" d="M14276 8813c313,33 875,38 1054,-37 141,-59 746,-513 583,-699 -177,-203 -636,-97 -1027,62 -150,61 -734,300 -772,465 -45,194 17,194 161,209z"/>
  <path class="fil4" d="M10073 8447c381,121 1657,-547 2843,-371 234,35 238,84 333,-111 -296,-545 -2424,43 -2929,190 -250,73 -239,52 -246,291z"/>
  <path class="fil4" d="M17676 6052c-379,-270 -2359,1015 -2152,1375 148,257 324,-284 991,-672 184,-107 398,-215 616,-315 487,-225 542,-94 546,-387z"/>
  <path class="fil1" d="M4744 12618l3444 -684c-86,-212 -10,-77 -147,-227 -319,-348 -850,-1168 -945,-1588 -656,285 -2037,1772 -2352,2499z"/>
  <path class="fil1" d="M18767 11700c1680,1796 3072,-49 2063,-686 -405,-256 -932,-255 -1469,-248l-595 934z"/>
  <path class="fil1" d="M13570 2760l969 79 45 -1765c565,-62 1696,1169 2009,1663 207,327 205,625 347,945l501 288c-266,-952 -700,-1435 -1170,-2049 -226,-295 -1351,-1432 -1697,-1536 -221,178 -1038,2032 -1004,2375z"/>
  <path class="fil4" d="M11225 23511c-2640,-81 -5544,-163 -8110,-559 94,-702 202,-738 37,-843 -141,-90 -388,-266 -600,-402 -311,-199 -374,-104 -169,-471 87,-156 189,-309 268,-482 293,-647 -197,-2311 -211,-3103 1448,-272 4077,-898 5572,-858 267,7 624,108 800,94 359,-467 1531,-3788 1876,-4272l314 4198c59,819 122,603 -175,1262 -265,588 71,595 306,938 178,258 93,4029 93,4498zm-262 -11444c205,57 282,370 365,542 101,211 202,418 303,629 610,1266 1271,2564 1837,3837 1312,176 7711,12 9583,11 -33,493 -310,2841 -236,3173 51,231 324,429 392,741 -124,208 -278,296 -392,492 -273,471 986,1504 -514,1648 -1162,112 -2306,199 -3477,265 -2445,138 -4834,126 -7286,112 -159,-982 111,-4232 -97,-4603 -37,-65 -299,-278 -372,-407 -101,-178 57,-375 154,-551 205,-372 83,-926 48,-1403 -66,-893 -359,-4035 -305,-4486zm410 -57c937,-46 6750,-499 7219,-100 468,398 1238,1118 2051,781 328,-136 618,-461 725,-779 406,-4 813,14 1218,36 680,37 633,-20 857,335 426,675 2344,3938 2522,4500 -1023,-1 -2047,-17 -3069,20 -850,31 -9036,103 -9200,12 -135,-168 -2300,-4660 -2323,-4804zm-10946 5773c93,-968 422,-2466 705,-3351 258,-806 273,-657 1086,-887 505,-143 1037,-296 1552,-416l4917 -1011c429,-31 1513,-106 1902,-51l-1895 4515c-2844,-258 -5651,829 -8269,1202zm4319 -5165c315,-726 1696,-2214 2352,-2499 60,263 291,683 533,1046 171,256 412,542 559,769l-3444 684zm14617 -1852c537,-7 1064,-7 1469,248 1008,637 -383,2482 -2063,686l595 -934zm-7322 -7614c819,-142 1662,-114 2483,9 957,144 2403,688 3107,1339 424,392 1256,1545 1420,2101l-908 799c-150,144 -182,230 -171,280 22,101 163,86 236,38 232,-153 638,-661 967,-823 156,211 259,641 303,917 -241,74 -472,138 -705,217 -183,62 -448,110 -471,305 -20,171 62,137 189,106 293,-73 818,-285 1063,-338 31,314 67,628 20,948 -228,34 -466,17 -698,30 -200,11 -462,-4 -460,180 3,232 481,85 1118,99 -148,990 -576,1584 -1010,2169l-2061 -71c174,-236 806,-924 601,-1075 -202,-149 -762,904 -988,1053 -141,93 -312,75 -499,82 -1818,72 -3731,221 -5528,262 101,-195 247,-344 437,-453 94,-54 158,-135 72,-227 -156,-168 -343,45 -501,209 -598,619 -283,485 -1122,522 -346,15 -312,21 -470,-191 293,-250 571,-444 897,-651 301,-191 669,-410 902,-508 157,-66 482,-103 540,-214 60,-113 1,-177 -92,-190 -56,-8 -176,8 -232,22 -309,79 -914,421 -1067,514 -347,211 -931,676 -1212,779 -134,-152 -355,-410 -456,-684 330,-225 981,-476 1390,-632 244,-93 526,-179 792,-240 259,-59 701,-3 886,-101 213,-559 -1387,-69 -1638,20 -568,202 -1077,442 -1580,679 -293,-274 -405,-1107 -444,-1600 -30,-383 -168,-451 -347,-697 -449,-617 -1675,-2837 -1553,-3393 1098,-101 2199,-213 3265,-26 135,24 253,-44 391,-151 817,-629 2089,-1235 3130,-1415zm2818 -1680c427,128 1634,1260 1730,2041 -618,-286 -1412,-545 -1759,-616l29 -1425zm-1287 1289c-34,-343 783,-2197 1004,-2375 346,104 1471,1242 1697,1536 471,614 905,1096 1170,2049l-501 -288c-51,-181 -139,-618 -347,-945 -313,-494 -1444,-1724 -2009,-1663l-45 1765 -969 -79zm-340 -19c-1491,0 -3097,571 -4194,1337 -775,541 -340,215 -1439,215 -285,0 -2739,35 -2739,310 0,202 342,1167 428,1382 280,703 852,1771 1307,2364 201,262 228,274 272,659 33,290 106,576 112,819 -574,433 -1210,929 -1684,1472 -245,281 -451,562 -663,886 -123,188 -217,453 -401,529 -114,47 -2593,602 -2956,817 -563,333 -1262,4375 -1117,4520 288,138 1544,-275 1964,-310 78,942 310,1353 310,2638 0,197 -277,648 -453,940 -122,167 -40,328 84,408 251,221 635,472 835,617 -53,353 -154,623 -69,758 137,188 675,239 2341,381l2687 207c2151,63 4121,153 6358,153 1579,0 3139,-51 4716,-131 1328,-67 3436,-233 3785,-309 242,-53 229,-94 376,-244 559,-566 161,-675 -40,-1540 124,-83 465,-445 465,-621 0,-301 -296,-543 -379,-759 -161,-421 208,-2422 224,-3121 792,0 1604,-28 2413,-27 758,1 641,-115 275,-852l-2150 -3797c-134,-203 -317,-572 -504,-686 -247,-151 -1506,-121 -1895,-121 0,-1004 -1134,-1190 -1964,-1190 256,-838 350,-1141 326,-1946 -23,-416 -80,-883 -181,-1193 -293,-989 -978,-2145 -1607,-2793 -255,-299 -232,-88 -318,-561 -77,-424 -323,-929 -524,-1234 -131,-199 -219,-330 -361,-518l-391 -488c-258,-320 -1547,-1662 -1905,-1662 -251,0 -386,303 -495,487 -127,214 -236,493 -325,710 -111,272 -504,1252 -524,1493z"/>
 </g>
</svg>
