<?xml version="1.0" encoding="UTF-8"?>
<!DOCTYPE svg PUBLIC "-//W3C//DTD SVG 1.1//EN" "http://www.w3.org/Graphics/SVG/1.1/DTD/svg11.dtd">
<!-- Creator: CorelDRAW 2017 -->
<svg xmlns="http://www.w3.org/2000/svg" xml:space="preserve" width="118.84mm" height="93.13mm" version="1.1" style="shape-rendering:geometricPrecision; text-rendering:geometricPrecision; image-rendering:optimizeQuality; fill-rule:evenodd; clip-rule:evenodd"
viewBox="0 0 11884 9313"
 xmlns:xlink="http://www.w3.org/1999/xlink">
 <defs>
  <style type="text/css">
   <![CDATA[
    .fil5 {fill:#170C15}
    .fil10 {fill:#40C2D6}
    .fil9 {fill:#41C3D6}
    .fil8 {fill:#44C5D8}
    .fil11 {fill:#48C7DA}
    .fil13 {fill:#6D5FDE}
    .fil16 {fill:#7161DE}
    .fil17 {fill:#73E3FF}
    .fil12 {fill:#907EEB}
    .fil7 {fill:#B81A1F}
    .fil1 {fill:#B81A1F}
    .fil2 {fill:#D7981A}
    .fil0 {fill:#DA9C1E}
    .fil6 {fill:#EBB83C}
    .fil4 {fill:#EC1F26}
    .fil3 {fill:#EDBC41}
    .fil15 {fill:#EEBC42}
    .fil14 {fill:#FDFDFF}
   ]]>
  </style>
 </defs>
 <g id="Capa_x0020_1">
  <metadata id="CorelCorpID_0Corel-Layer"/>
  <g id="_2871696615552">
   <path class="fil0" d="M6905 2538l-76 -73c11,117 -43,443 -49,602 -28,688 100,1243 99,1828 -1,695 -190,1186 -29,1751 81,284 42,251 68,398 27,154 -33,80 60,97 -2,-446 -179,-647 -133,-1134 37,-396 93,-763 88,-1164 -5,-488 -227,-1965 -29,-2304z"/>
   <path class="fil1" d="M2431 2432c192,0 271,40 457,18 67,-32 90,-60 156,-95 87,-101 254,-200 358,-284l1672 -1252c-85,-105 -198,-227 -308,-299l-2334 1911z"/>
   <path class="fil2" d="M8148 7171l1016 28c110,-337 224,-571 153,-959 -84,-459 274,-623 231,-1981 -11,-333 -64,-747 -57,-1062 -165,35 -690,-6 -894,-12 -74,316 -125,714 -157,1046 -52,547 117,582 144,1040 43,744 -451,1187 -436,1899z"/>
   <path class="fil2" d="M8551 3179l-547 -9c-107,-4 -225,-2 -330,-9 -148,-9 -113,-35 -209,-95l-84 4062 691 18c52,-117 77,-364 110,-499 148,-606 406,-796 345,-1435 -50,-522 -201,-270 -137,-1006 19,-224 92,-852 163,-1027z"/>
   <path class="fil2" d="M9234 7203l652 79c-31,-167 -212,-288 -150,-428 191,-73 277,122 370,187 0,-180 19,-297 42,-463 103,-755 174,-1637 268,-2380 39,-310 54,-671 114,-951l-978 -33c22,657 150,1485 0,2127 -72,306 -227,598 -169,914 74,404 -58,604 -148,947z"/>
   <path class="fil2" d="M4490 1497c307,-109 514,-394 687,-302l647 415c32,549 167,1077 100,1620l-1144 32c95,-1128 -220,-1179 -290,-1765zm-1446 858l358 -199c12,122 -52,462 -65,619 -87,1037 101,1070 252,1832 5,49 -13,27 46,42 -34,-533 -361,-680 -242,-1925 63,-660 38,-588 345,-767 227,-132 456,-285 685,-400 15,21 7,4 29,51l235 719c52,195 128,769 19,920 -48,43 -241,22 -461,197 -90,72 -205,218 -256,380 -79,254 66,2003 90,2395 12,203 24,405 37,608 18,299 5,491 46,552l264 -40c-6,-904 -110,-1924 -165,-2839 -33,-556 -27,-872 334,-1104 347,-223 975,-115 1415,-125 -46,-105 -15,-656 -45,-847 -41,-261 -105,-506 -78,-779l152 74 -470 -461c-152,-136 -382,-392 -494,-438l-1672 1252c-104,83 -271,183 -358,284z"/>
   <path class="fil3" d="M6008 3273c314,0 572,263 640,532 52,206 -18,863 -32,1117 -42,743 -69,1524 -138,2262l1670 -12c-15,-712 479,-1155 436,-1899 -27,-459 -195,-493 -144,-1040 31,-332 82,-729 157,-1046l-46 -7c-71,175 -143,803 -163,1027 -64,736 87,484 137,1006 61,639 -197,828 -345,1435 -33,136 -58,382 -110,499l-691 -18 84 -4062c-66,-83 -178,-176 -276,-279 -77,-81 -193,-179 -282,-250 -198,339 24,1817 29,2304 4,402 -51,768 -88,1164 -46,487 130,688 133,1134 -93,-16 -33,57 -60,-97 -26,-147 13,-114 -68,-398 -161,-565 28,-1057 29,-1751 1,-585 -127,-1140 -99,-1828 6,-159 60,-485 49,-602 -84,-81 -118,-130 -201,-203 -73,-64 -126,-110 -197,-174 -146,-131 -237,-257 -393,-368l-152 -74c-27,274 38,519 78,779 30,192 -1,742 45,847z"/>
   <path class="fil3" d="M3635 4660c18,21 59,30 78,48l-41 135 -11 41c87,95 131,1019 178,1234 91,413 142,869 136,1297l185 -36c-26,-103 -28,-252 -46,-552 -12,-204 -24,-406 -37,-608 -24,-392 -169,-2141 -90,-2395 50,-161 165,-308 256,-380 220,-175 414,-153 461,-197 109,-150 32,-724 -19,-920l-235 -719c-21,-47 -14,-30 -29,-51 -229,115 -458,268 -685,400 -307,179 -282,107 -345,767 -119,1245 209,1402 243,1936z"/>
   <path class="fil3" d="M4490 1497c70,587 385,637 290,1765l1144 -32c68,-543 -68,-1071 -100,-1620l-647 -415c-173,-92 -381,192 -687,302z"/>
   <path class="fil3" d="M3044 2356c-65,35 -88,63 -156,95 0,436 185,1466 185,1846 117,84 372,247 516,317 0,-1 -2,-9 -2,-10 -151,-758 -338,-792 -251,-1828 13,-157 77,-498 65,-619l-358 199z"/>
   <path class="fil4" d="M2431 2432c778,-637 1556,-1274 2334,-1911 939,876 1877,1752 2816,2628 1173,5 2346,9 3518,14 12,-92 25,-183 37,-275 -296,-505 -1684,-1874 -2224,-2439 -1364,-154 -4084,-450 -4100,-436 -915,745 -1829,1489 -2744,2234 121,62 242,124 362,185z"/>
   <path class="fil5" d="M4423 7340l2054 -157c69,-738 96,-1519 138,-2262 14,-254 85,-911 32,-1117 -68,-268 -326,-532 -640,-532 -440,10 -1068,-98 -1415,125 -362,232 -367,548 -334,1104 54,915 159,1935 165,2839z"/>
   <path class="fil1" d="M5195 48l-382 -36 56 55 2538 2476 -721 -826c141,-63 497,-65 640,-118l-736 17c-95,-97 -191,-192 -259,-295 131,-25 1169,-122 1225,-117 -400,-18 -805,-35 -1205,-43 -163,-3 -184,20 -393,-241 -93,-116 -192,-215 -278,-328l1408 -27c-34,-9 -35,-11 -74,-17l-1278 -91c-262,-14 -174,4 -404,-235l-137 -175z"/>
   <path class="fil6" d="M9164 7199l70 4c90,-343 222,-543 148,-947 -58,-316 98,-608 169,-914 150,-642 23,-1470 0,-2127l-60 -17c-7,315 46,728 57,1062 43,1358 -314,1521 -231,1981 71,389 -44,622 -153,959z"/>
   <path class="fil7" d="M11084 3279c30,-64 93,-335 53,-391l-3437 -101c-67,95 -97,247 -119,362 1170,56 2330,63 3503,130z"/>
   <path class="fil8" d="M7164 8940c-259,4 -221,117 -1,126 202,9 336,-131 1,-126z"/>
   <path class="fil8" d="M10873 8358c186,-3 197,-115 -9,-125 -205,-9 -179,127 9,125z"/>
   <path class="fil9" d="M2261 8329c131,37 309,52 425,-2 149,-69 102,-145 -32,-187 -132,-41 -316,-28 -411,1 -174,54 -147,141 18,187z"/>
   <path class="fil9" d="M10875 8824c287,-15 300,-201 21,-213 -342,-15 -304,227 -21,213z"/>
   <path class="fil9" d="M2322 8833c10,-60 -64,-125 -207,-115 -121,8 -186,46 -201,87 -52,138 383,178 408,28z"/>
   <path class="fil9" d="M6431 8793c366,-1 236,-163 -9,-160 -239,3 -355,161 9,160z"/>
   <path class="fil9" d="M9789 8538c274,-1 213,-190 -15,-184 -206,6 -264,184 15,184z"/>
   <path class="fil9" d="M3407 8636c250,20 330,-153 9,-151 -245,1 -292,128 -9,151z"/>
   <path class="fil10" d="M1355 8635c384,11 275,-246 -20,-209 -256,32 -274,201 20,209z"/>
   <path class="fil11" d="M7887 8540c256,0 239,-107 4,-109 -233,-2 -221,109 -4,109z"/>
   <g>
    <path class="fil0" d="M3653 4954c-13,277 79,953 138,1232 44,208 72,379 93,592 13,131 23,560 53,643l40 -8c6,-428 -49,-882 -140,-1295 -47,-215 -91,-1139 -178,-1234l-7 70z"/>
    <path class="fil12" d="M2084 4978c-82,-516 555,-442 442,-4 77,56 156,69 192,173 83,242 -185,386 -345,291 -47,-28 -64,-61 -87,-100l-60 -103 -795 295c140,571 -528,493 -420,53 -34,-24 -350,-178 -151,-415 53,-63 137,-99 243,-76 123,27 119,74 181,162l799 -277zm-1884 76l76 235 384 -149c-92,70 -272,205 -343,287l323 970c197,-72 520,-332 776,-321 -37,7 -343,190 -403,226 -294,176 -353,179 -309,329 64,16 103,-15 164,-50 760,-434 1645,-706 2524,-785l260 -840 7 -70 11 -41 -366 62c71,-76 94,-63 196,-112 77,-37 126,-61 211,-86 -150,-142 -454,-279 -639,-412 -225,-174 -343,-111 -740,-11 -493,124 -999,273 -1469,462 -127,51 -213,88 -336,140l-289 132c-37,26 -21,13 -39,34z"/>
    <path class="fil12" d="M1853 7648c282,-142 549,-97 903,-71 -82,-158 -261,-131 -261,-352l139 -106c-26,-117 -64,-217 -98,-335 -31,-107 -60,-247 -97,-334l-805 -83 219 1281z"/>
    <path class="fil13" d="M1699 7970l191 -44 -7 -122 -29 -156 -219 -1281 805 83c-5,-55 -60,-244 -79,-284 134,-31 900,-149 916,-159 48,-92 73,-120 117,-213 -879,79 -1765,351 -2524,785 -60,35 -100,66 -164,50 -44,-150 15,-153 309,-329 60,-36 366,-219 403,-226 -256,-10 -579,249 -776,321l-323 -970c71,-82 251,-216 343,-287l-384 149 -76 -235c-203,123 -161,279 -118,401l453 1427 679 -327c96,-49 136,-71 247,-97 0,213 238,1212 238,1512z"/>
    <path class="fil14" d="M2084 4978l-799 277c-62,-88 -58,-135 -181,-162 -106,-23 -190,13 -243,76 -199,237 117,391 151,415 -108,440 561,518 420,-53l795 -295 60 103c23,39 40,71 87,100 160,95 428,-48 345,-291 -36,-104 -115,-117 -192,-173 113,-438 -525,-513 -442,4z"/>
    <path class="fil15" d="M3393 5795c-42,83 -68,117 -117,213 24,176 44,346 60,506 16,164 55,374 55,522 282,-205 145,266 110,456 119,-13 357,-5 437,-70 -30,-83 -39,-512 -53,-643 -22,-212 -49,-384 -93,-592 -59,-278 -152,-954 -138,-1232l-260 840z"/>
    <path class="fil16" d="M3671 4843l41 -135c-85,25 -133,49 -211,86 -102,49 -125,36 -196,112l366 -62z"/>
    <polygon class="fil12" points="1889,7926 2025,7872 1882,7804 "/>
   </g>
   <path class="fil17" d="M9234 7203l-70 -4 -1016 -28 -1670 12 -2054 157c-326,39 -608,116 -923,151 27,-148 117,-467 21,-503 -118,-44 -293,284 -316,370 -136,-72 -580,-388 -699,-175 -95,170 166,280 249,395 -287,-22 -516,-55 -742,9 -66,18 -190,48 -197,130 -6,81 144,125 209,156 -219,87 -434,144 -659,238 -250,106 -866,335 -830,595 54,396 1173,432 1508,428 869,-11 1632,-588 2406,-187 699,362 623,292 1560,370 352,29 1508,-9 1754,-147 134,-76 92,-156 222,-254 257,-192 989,-121 1282,-81 119,16 339,30 442,34l1798 107c313,2 250,-40 422,-80 0,-343 -251,-344 -557,-528 -70,-42 -162,-114 -236,-134 18,-67 142,-151 -48,-376l-253 -197c-47,-36 -18,-14 -44,-36 132,-11 207,-46 264,-132 -113,-169 -181,-159 -449,-159 30,-45 509,-397 109,-374 -187,11 -346,187 -506,294 -31,-59 -89,-150 -106,-210 -93,-65 -179,-260 -370,-187 -62,140 119,261 150,428l-652 -79z"/>
  </g>
 </g>
</svg>
