<?xml version="1.0" encoding="UTF-8"?>
<!DOCTYPE svg PUBLIC "-//W3C//DTD SVG 1.1//EN" "http://www.w3.org/Graphics/SVG/1.1/DTD/svg11.dtd">
<!-- Creator: CorelDRAW 2017 -->
<svg xmlns="http://www.w3.org/2000/svg" xml:space="preserve" width="97.54mm" height="125.68mm" version="1.1" style="shape-rendering:geometricPrecision; text-rendering:geometricPrecision; image-rendering:optimizeQuality; fill-rule:evenodd; clip-rule:evenodd"
viewBox="0 0 9754 12568"
 xmlns:xlink="http://www.w3.org/1999/xlink">
 <defs>
  <style type="text/css">
   <![CDATA[
    .fil11 {fill:#471C1C}
    .fil14 {fill:#611D1D}
    .fil12 {fill:#611D1D}
    .fil13 {fill:#663333}
    .fil0 {fill:#663333}
    .fil25 {fill:#6A1A2C}
    .fil1 {fill:#6A1C2D}
    .fil24 {fill:#73252E}
    .fil20 {fill:#762B16}
    .fil23 {fill:#9C5233}
    .fil19 {fill:#A5603F}
    .fil9 {fill:#B26A37}
    .fil22 {fill:#B36B37}
    .fil8 {fill:#B36C37}
    .fil6 {fill:#B46D3B}
    .fil3 {fill:#B56E39}
    .fil18 {fill:#D39B62}
    .fil7 {fill:#E23F58}
    .fil2 {fill:#EAB686}
    .fil4 {fill:#EAB788}
    .fil10 {fill:#EBB889}
    .fil15 {fill:#EEE1D6}
    .fil16 {fill:#FDFDFD}
    .fil21 {fill:#FE5570}
    .fil5 {fill:#FEA3BA}
    .fil17 {fill:white}
   ]]>
  </style>
 </defs>
 <g id="Capa_x0020_1">
  <metadata id="CorelCorpID_0Corel-Layer"/>
  <g id="_2871701603792">
   <path class="fil0" d="M3946 9586c321,82 722,264 1255,147l132 -67c-475,5 -591,47 -1063,-52 -54,-11 -98,-22 -150,-34 -190,-44 -151,-7 -174,6z"/>
   <path class="fil1" d="M2251 4387c472,-28 635,70 789,430l72 197 17 -175c-90,-101 -54,-240 -252,-390 -241,-183 -239,-90 -514,-143l-113 81z"/>
   <path class="fil2" d="M3146 5133c44,84 42,64 3,129 -22,-51 -22,-25 -22,-78 -1,-50 15,-43 20,-51zm-17 -294l-17 175 -72 -197c-22,11 -50,-36 -28,152 16,132 41,422 206,393 251,-45 -30,-503 -65,-582 -28,36 -14,-6 -25,60z"/>
   <path class="fil2" d="M8203 7303c6,-74 -23,-18 18,-59l46 62c36,-38 49,-83 27,-151 -32,-97 -205,-231 -407,-239 21,132 49,151 112,238 62,87 74,132 205,148z"/>
   <path class="fil3" d="M3961 4662c204,75 438,258 658,295 231,38 560,-131 671,-280 -482,18 -403,383 -1002,54 -98,-54 -225,-129 -327,-69z"/>
   <path class="fil3" d="M2161 6172c301,25 539,-92 612,-322l-564 277c-43,31 -18,12 -48,44z"/>
   <path class="fil3" d="M1838 6061c-37,-93 -59,-88 -108,-146 -68,-81 -24,-75 -123,-119 -31,162 66,248 231,265z"/>
   <path class="fil3" d="M7548 6098c114,-10 171,-100 169,-246 -102,45 -166,134 -169,246z"/>
   <path class="fil3" d="M5361 4641c124,-3 122,4 187,-64 -11,-9 0,-55 -99,-32 -50,12 -76,48 -88,96z"/>
   <path class="fil4" d="M9225 2399c177,-130 245,-789 6,-884 -43,121 -84,782 -6,884z"/>
   <path class="fil4" d="M6064 4741c-158,57 -218,310 -120,471 165,-31 354,-349 342,-499 -48,-39 -7,-13 -77,-30 -50,64 -73,91 -117,174 -18,35 -25,54 -42,89l-57 93c6,-124 38,-193 71,-297z"/>
   <path class="fil4" d="M5895 4397c56,17 520,-177 558,-328 -130,-24 -267,-6 -377,53 -52,28 -102,71 -134,106 -25,27 -45,48 -54,78l8 90z"/>
   <path class="fil4" d="M5900 3231c39,32 68,52 139,66l133 -3c190,-65 -113,-328 -272,-63z"/>
   <path class="fil4" d="M7514 6344c99,20 124,-8 193,-34l26 -169c-124,25 -237,71 -219,202z"/>
   <path class="fil5" d="M3376 8758c158,184 446,133 773,121 -27,-103 -326,-310 -418,-378l-340 244c-3,-5 -10,9 -15,14z"/>
   <path class="fil5" d="M5816 8915c264,0 506,19 531,-271l-399 -181 -132 452z"/>
   <path class="fil6" d="M739 10882c277,-154 356,-539 530,-855 87,-159 187,-291 306,-380 206,-153 281,-132 543,-72 -123,-133 -314,-291 -513,-109 -431,395 -434,501 -597,938 -82,221 -192,314 -269,478z"/>
   <path class="fil6" d="M9033 11033c-53,-187 -445,-631 -577,-816 -101,-142 -189,-262 -287,-403 -121,-174 -141,-273 -335,-336 7,76 291,509 371,618l321 366c120,124 367,465 507,570z"/>
   <path class="fil6" d="M2251 4387l113 -81c-209,-17 -354,111 -368,232l188 -98c91,-55 30,-16 67,-53z"/>
   <path class="fil7" d="M4068 8665c-18,-155 -52,-268 45,-393 188,-245 422,-202 656,-54 156,99 107,174 199,311 -25,-288 -209,-686 -520,-637 -101,16 -622,419 -611,549 47,113 128,144 232,224z"/>
   <path class="fil7" d="M5019 8485c101,-169 366,-262 581,-120 234,154 133,355 41,574 83,-49 92,-81 137,-218 38,-118 44,-170 31,-300 -86,-66 -773,-309 -911,-342 25,64 44,110 64,184l57 223z"/>
   <path class="fil8" d="M1272 8506c-29,-139 -135,-267 -215,-593 -238,-970 263,-1314 304,-1986 -47,50 -58,105 -80,171 -207,618 -715,1240 -189,2147 33,56 45,81 77,135 15,24 24,40 43,65l59 61z"/>
   <path class="fil8" d="M1245 3779c-29,-285 -131,-336 -240,-526 -140,-244 -76,-427 -68,-715l-92 373c-8,140 9,259 59,365l340 504z"/>
   <path class="fil8" d="M7291 10959l42 8c-87,60 -307,140 -349,176 228,-21 248,6 436,-118 109,-72 217,-180 242,-330 -57,28 -122,85 -185,124l-142 97c-47,40 -16,14 -45,43z"/>
   <path class="fil9" d="M8248 4105c29,-334 473,-675 181,-900 -141,-109 -270,-184 -119,-416 108,-165 465,-425 -19,-558 -7,-169 109,-441 184,-580 -120,78 -503,802 -527,1006 204,-60 151,-146 349,-203 -76,178 -589,578 -308,819 123,105 310,128 318,325 8,206 -184,296 -60,506z"/>
   <path class="fil9" d="M2065 3529c94,-193 -43,-300 5,-449 49,-153 582,-308 308,-592 -84,-87 -234,-102 -328,-186 158,-77 327,88 454,125 -15,-180 -424,-935 -561,-1117l-71 -79c43,197 183,380 189,622 9,323 -352,266 -144,513 245,293 199,186 42,494 -130,255 101,399 107,669z"/>
   <path class="fil9" d="M8431 7508c27,33 -4,33 81,58 251,-147 66,-766 -9,-995 -116,-352 -237,-624 -200,-1063 -326,481 551,1725 128,1999z"/>
   <path class="fil9" d="M2478 11366c-23,-32 -7,-38 -29,-72l257 106c-56,-222 -212,-48 -536,-447 -3,-4 -36,-43 -38,-45 -37,-38 -2,-11 -50,-42 -12,293 167,414 396,500z"/>
   <path class="fil9" d="M7179 4468c5,6 13,6 15,17 2,10 11,12 15,16l66 104c-74,-31 -142,-94 -237,-138l54 -24c-24,-11 -43,-17 -78,-31 -6,-2 -13,-5 -19,-8 -5,-2 -14,-6 -19,-8 -5,-2 -14,-6 -18,-8 -4,-2 -12,-5 -18,-8 -38,24 5,18 -61,27 -10,1 -59,-2 -66,-3 -87,-4 -76,-24 -142,20l121 -1c29,58 -37,64 78,99 66,21 135,21 217,49 154,53 246,171 332,189 -11,-173 -92,-252 -241,-294z"/>
   <path class="fil10" d="M1119 793l258 -366c387,-487 988,392 1127,665 261,512 137,377 521,880 157,206 340,469 203,758 -23,47 -48,75 -77,108l-120 155c171,-56 275,-153 484,-164 -9,-518 -173,-752 -397,-1056 -201,-274 -1206,-2249 -1783,-1493 -72,94 -219,376 -217,512z"/>
   <path class="fil10" d="M6639 2872c63,-341 949,-1473 1252,-1800 63,-68 127,-115 189,-180 190,-197 360,-378 639,-525 340,-178 503,270 632,596 63,160 19,105 49,99 5,-81 -203,-1067 -698,-846 -827,369 -2210,2430 -2219,2636l157 20z"/>
   <path class="fil10" d="M4049 3257c173,60 258,42 459,142 548,273 631,280 1136,-24 88,-53 133,-57 166,-148 -291,-100 -631,177 -965,45 -218,-86 -693,-329 -797,-15z"/>
   <path class="fil10" d="M489 11867c3,288 604,286 1031,81 163,-79 267,-106 314,-210 -406,-2 -925,87 -1346,129z"/>
   <path class="fil10" d="M1295 2223c60,-133 33,-327 24,-477 -8,-151 1,-324 -111,-391 -130,125 -146,596 -2,798 65,91 -6,40 89,70z"/>
   <path class="fil10" d="M7386 12134c207,111 636,14 686,-310 -223,-4 -626,238 -686,310z"/>
   <path class="fil10" d="M3115 4154c29,69 136,165 196,256 76,115 100,225 249,212 41,-207 -237,-587 -445,-468z"/>
   <path class="fil10" d="M1704 6861c16,-84 11,-105 -7,-197 -21,-112 -9,-114 -82,-147 -109,82 -126,334 89,343z"/>
   <path class="fil11" d="M3376 8758c5,-5 13,-18 15,-14l340 -244c92,68 391,275 418,378 -327,12 -615,63 -773,-121zm2440 157l132 -452 399 181c-25,289 -267,271 -531,271zm-175 24c-57,230 -515,391 -866,252 -174,-69 -251,-136 -376,-232 -96,-74 -260,-220 -330,-295 -103,-80 -185,-112 -232,-224 -11,-130 511,-534 611,-549 311,-48 495,350 520,637l14 242 37 -286 -57 -223c-20,-74 -39,-120 -64,-184 137,33 825,276 911,342 14,130 7,183 -31,300 -45,138 -54,170 -137,218zm-1535 -2470c-817,308 -390,-1150 700,-828 710,210 577,1042 57,843 -175,-67 -149,-233 -128,-419 -124,85 -166,289 -57,420 104,124 262,95 437,117 23,128 -120,241 -206,298 -375,250 -1041,30 -1021,-258 161,-69 303,-37 327,-221 21,-162 -99,-250 -188,-299 33,146 114,147 78,346zm-2526 1625c279,94 500,356 609,618 176,427 218,421 606,618l-347 -43c374,300 1319,-76 1798,-169 309,-60 194,36 536,169 213,82 403,65 610,-2 239,-78 544,247 1163,240 299,-4 372,-80 581,-161l-31 -5c-5,-1 -27,-3 -34,-4l-73 -14c224,-92 396,-344 477,-612 133,-441 6,-447 392,-676 -468,-116 -529,902 -1474,498 -274,-117 -485,-227 -785,-327 -306,-103 -958,-276 -1105,-560 -310,-597 164,-564 317,-616 405,-138 339,-375 517,-592 112,-136 87,-268 30,-425 -235,-647 -1034,-653 -1448,-358 -142,101 -412,429 -324,728 36,121 44,95 109,157 77,74 54,91 106,186 194,354 392,104 511,600 105,437 28,477 -299,735 -287,227 -491,561 -988,679 -341,80 -653,-48 -830,-221 -105,-103 -398,-543 -625,-441z"/>
   <path class="fil12" d="M6670 5154c182,-75 431,159 220,260 -240,115 -448,-166 -220,-260zm-458 535c311,72 404,331 714,375 467,65 341,-368 668,-445 -35,-90 -274,-476 -410,-560 -282,-173 -485,-124 -728,28 40,-107 79,-103 130,-198 -214,124 -349,493 -374,801z"/>
   <path class="fil12" d="M3003 5574c-24,-175 -122,-477 -215,-641 -14,-24 -33,-57 -53,-75 -17,-15 -303,-126 -503,-57 -177,61 -222,140 -310,273 -116,175 -154,202 -49,434 192,424 370,416 721,239 118,-59 311,-121 408,-172z"/>
   <path class="fil12" d="M8248 4105c-124,-211 68,-300 60,-506 -8,-196 -195,-219 -318,-325 -281,-241 232,-641 308,-819 -197,57 -145,143 -349,203 24,-204 407,-929 527,-1006l283 -599c-109,70 -212,250 -286,364 -281,434 -1090,1445 -596,1945 85,86 94,65 194,124 208,123 19,257 1,437 -15,155 128,376 207,445l-30 -263z"/>
   <path class="fil13" d="M9003 4234c42,-67 40,-67 125,-81 297,572 -224,1176 -473,1155 -61,-86 -102,-270 -143,-391l-167 -315c65,358 338,868 41,1183 -45,-86 -49,-228 -75,-346l-9 69c-37,439 84,711 200,1063 75,229 261,847 9,995 -85,-25 -55,-25 -81,-58 -45,-37 -139,-161 -164,-202l-46 -62c-41,40 -12,-15 -18,59 291,342 449,945 140,1391 -200,289 -764,776 -1025,845 -91,145 -803,425 -994,521 -128,64 -385,216 -520,248 -244,57 -488,-97 -683,37 306,-3 422,30 139,211 -728,466 -1417,-26 -1463,-187l456 -56c-239,-226 -675,190 -1442,-320 -103,-69 -914,-690 -1002,-836 -62,-101 -336,-337 -537,-651l-59 -61c-19,-24 -29,-40 -43,-65 -32,-54 -44,-79 -77,-135 -526,-907 -18,-1529 189,-2147 22,-66 33,-121 80,-171 -14,-157 22,-213 -26,-386 -42,138 -40,408 -96,511 -35,64 -17,34 -55,70 -1,-206 12,-367 -14,-573 -137,-1059 273,-925 413,-1316 -173,61 -385,460 -499,475 -193,-23 -301,-243 -202,-466 43,-98 165,-477 229,-527 97,66 82,182 76,305 76,-76 59,-116 59,-243l-340 -504c-50,-105 -68,-225 -59,-365l92 -373c-8,-138 23,-1558 182,-1745 -2,-137 145,-419 217,-512 577,-757 1582,1219 1783,1493 224,304 388,539 397,1056 -84,4 -145,15 -199,30 -150,41 -239,95 -371,162 -78,40 -166,88 -227,189 209,-70 646,-414 904,-273 -56,109 -210,150 -268,299 209,-135 371,-290 715,-301 310,-10 577,113 874,129 270,15 580,-110 871,-127 328,-20 675,85 924,-49 -39,-24 19,-29 -100,-16l-157 -20c9,-206 1392,-2267 2219,-2636 496,-221 703,765 698,846 49,51 15,-18 51,91 52,155 114,627 106,803 -13,316 -114,591 -159,885 -53,346 58,653 -126,937 -140,217 -388,266 -398,676l66 -109c21,-41 45,-83 62,-110zm-8876 7561c47,-49 36,-46 66,-118 97,-230 387,-632 546,-794 77,-164 187,-257 269,-478 163,-437 165,-543 597,-938 199,-182 390,-24 513,109 62,44 240,182 281,246 89,48 178,125 268,185 110,73 179,120 296,179 217,108 505,145 701,252 369,202 750,577 1400,321 235,-93 357,-242 606,-320 490,-154 255,-82 670,-282 232,-111 442,-190 653,-299 168,-86 467,-287 621,-330 76,-55 111,-59 221,-48 194,62 213,162 335,336 98,141 186,261 287,403 132,185 524,629 577,816 91,61 299,472 354,614 13,-25 18,8 20,-73 -38,-448 -580,-1083 -850,-1432 -791,-1021 -458,-892 -133,-1391 321,-494 96,-656 254,-1201 150,-518 -45,-816 -167,-1249 -215,-763 565,-974 747,-1479 70,-194 19,-443 1,-647 -29,-328 106,-293 190,-537 74,-215 25,-468 39,-701 13,-225 96,-420 136,-633 114,-604 -71,-1378 -328,-1871 -244,-468 -523,-447 -934,-132 -563,431 -992,996 -1402,1586 -810,1166 -522,850 -1317,957 -223,30 -414,108 -647,107 -220,-1 -435,-71 -650,-103 -176,-26 -534,-22 -725,-22 -122,-830 -160,-695 -532,-1262 -196,-299 -418,-783 -712,-1060 -239,-225 -269,-317 -576,-455l-100 -49 -177 0 -96 55c-196,114 -281,306 -358,515 -279,756 -148,1121 -216,1767 -29,275 -149,595 -69,874 85,297 295,314 126,745 -110,280 -267,414 -72,708 197,299 173,378 224,781 165,1324 -580,1545 -207,2536 291,774 754,926 685,1306 -27,147 -139,201 -220,290 -457,503 -283,485 -506,975 -150,331 -766,954 -687,1243z"/>
   <path class="fil14" d="M1379 8166c29,-67 -54,-145 -70,-265 -54,-388 677,-423 1080,-906 70,-84 312,-391 377,-422 -22,104 -224,477 -288,591 -64,114 -108,178 -181,269 -68,84 -186,129 -234,234 295,-67 461,-357 603,-631 145,-280 295,-540 453,-790 282,-445 765,-1026 1611,-900 1156,173 1598,2249 2639,2385 -50,-75 -490,-290 -899,-818 -84,-109 -178,-227 -244,-354 -270,-382 -534,-792 -871,-1044 -705,-528 -1465,-295 -2065,268 -96,90 -136,160 -223,253 -238,256 -454,543 -716,765 -201,170 -446,234 -567,-66 -6,275 209,313 451,236 -145,416 -1424,413 -857,1196z"/>
   <path class="fil12" d="M1872 1232l71 79c137,181 546,937 561,1117 -127,-37 -296,-203 -454,-125 94,83 245,99 328,186 274,284 -259,439 -308,592 -48,149 89,257 -5,449 -36,162 -141,231 -188,352 569,-280 303,-719 316,-759 74,-224 849,-150 264,-1163 -192,-332 -458,-864 -798,-1071 67,127 143,211 213,343z"/>
   <path class="fil12" d="M6710 6927c29,24 17,13 45,42 24,25 31,36 50,57 275,314 606,323 950,505 657,347 132,971 121,1012 -20,72 -42,4 6,56 293,-404 553,-856 -151,-1204 -175,-87 -362,-95 -424,-231 17,-167 264,-247 240,-536 -108,179 -206,459 -436,458 -456,-1 -723,-1402 -1367,-1388 215,207 250,71 552,542l415 688z"/>
   <path class="fil13" d="M5849 12017l2 159 47 -133c191,-514 453,-831 1087,-900 41,-36 261,-116 349,-176l-42 -8c-160,42 -445,147 -620,93 76,-214 864,-438 911,-970 -112,64 -177,253 -441,452 -525,395 -1112,664 -1292,1482z"/>
   <path class="fil13" d="M2706 11400l-257 -106c22,34 6,40 29,72 140,34 249,136 497,178 212,36 388,40 589,103 345,107 658,318 809,576l53 87 23 -86 -83 -164c-294,-562 -1260,-522 -1734,-1122 -118,-149 -282,-506 -301,-742 -95,159 144,804 435,1031 97,76 209,140 286,218 -125,25 -231,-18 -348,-45z"/>
   <path class="fil12" d="M6064 4741c-33,104 -65,173 -71,297l57 -93c17,-35 24,-54 42,-89 43,-83 67,-110 117,-174 73,-107 254,-253 463,-256 65,-44 55,-24 142,-20 7,0 56,4 66,3 66,-9 23,-3 61,-27 -294,-44 -536,-92 -803,253 -2,2 -29,45 -31,48l-42 59z"/>
   <path class="fil15" d="M2399 9821c-61,82 -58,248 -66,375 19,237 183,593 301,742 474,600 1440,560 1734,1122l83 164c73,-94 488,-199 637,-225 331,-59 457,-45 762,19 179,-818 767,-1087 1292,-1482 264,-199 329,-388 441,-452 64,-239 61,-307 32,-557 -155,43 -454,243 -621,330 -212,109 -421,188 -653,299 -416,200 -180,128 -670,282 -249,78 -371,228 -606,320 -649,256 -1030,-119 -1400,-321 -196,-107 -484,-144 -701,-252 -117,-58 -186,-106 -296,-179 -90,-59 -178,-137 -268,-185z"/>
   <path class="fil15" d="M5571 8580c-115,18 -94,106 -161,223 -29,50 -168,189 -84,237 137,78 344,-251 246,-459z"/>
   <path class="fil16" d="M1702 0l100 49c306,138 337,231 576,455 294,277 516,761 712,1060 372,567 410,431 532,1262 191,-1 548,-4 725,22 215,32 430,102 650,103 233,1 424,-77 647,-107 794,-108 506,209 1317,-957 410,-590 839,-1155 1402,-1586 411,-315 691,-336 934,132 257,493 442,1267 328,1871 -40,213 -123,408 -136,633 -13,232 36,486 -39,701 -84,244 -220,210 -190,537 18,204 69,453 -1,647 -182,505 -962,716 -747,1479 122,433 317,731 167,1249 -158,545 67,707 -254,1201 -325,500 -659,370 133,1391 271,349 812,984 850,1432 42,67 23,14 9,76l-14 35c-54,148 -62,205 -203,227 -209,33 -334,-70 -574,2 -149,45 -278,136 -403,207 -139,78 -266,146 -414,221 -878,448 -1654,-256 -1912,-298l-47 133 -2 -159c-305,-64 -431,-77 -762,-19 -149,26 -565,131 -637,225l-23 86 -53 -87c-464,128 -661,174 -1097,-50 -358,-184 -759,-154 -1178,-71 -525,105 -1194,372 -1707,126 -262,-125 -184,-203 -265,-433 -79,-289 537,-913 687,-1243 223,-490 49,-471 506,-975 81,-89 193,-143 220,-290 69,-380 -394,-532 -685,-1306 -373,-991 373,-1212 207,-2536 -50,-403 -26,-482 -224,-781 -194,-295 -38,-429 72,-708 169,-431 -40,-448 -126,-745 -80,-278 40,-599 69,-874 69,-646 -62,-1011 216,-1767 77,-209 161,-401 358,-515l96 -55 -388 0c-234,350 -345,577 -430,1025 -116,611 -41,1078 -94,1387 -32,183 -95,426 -85,631 13,261 133,363 183,561 99,392 -400,629 -112,1115 51,86 96,119 137,206 98,206 157,744 132,971 -23,212 -70,426 -132,609 -270,803 -322,1264 140,2036 131,219 453,574 445,666 -6,66 -254,316 -311,377 -273,290 -260,600 -473,955 -93,155 -183,279 -284,431 -65,97 -233,333 -251,437 -1,6 -2,17 -3,34l0 646c1,14 2,24 2,30 27,165 229,272 376,338 356,160 842,81 1213,-13 195,-49 396,-93 583,-131 679,-139 733,-34 1167,142 461,187 823,39 915,43 110,5 146,96 291,22 131,-66 62,-123 162,-184 235,-142 657,-136 895,-136 27,116 84,221 236,213 201,-10 89,-124 337,7 62,33 247,122 311,139 18,5 67,9 136,11l1025 0c119,-3 202,-7 218,-11 74,-20 233,-114 297,-153 104,-63 195,-112 304,-172 96,-53 184,-113 319,-122 89,-7 838,141 865,-414 21,-434 -396,-1011 -588,-1267 -1124,-1500 -769,-925 -410,-1635 336,-663 101,-726 219,-1104 309,-990 -352,-1347 -115,-1888 108,-246 448,-400 636,-740 145,-262 154,-466 108,-761 -11,-68 -20,-153 -12,-227 24,-221 242,-154 239,-926 -2,-312 26,-565 26,-900l0 -239 0 -604 0 -56c0,-435 -11,-465 -143,-783 -61,-147 -243,-527 -365,-561 -8,-2 -17,-4 -27,-6l-696 0c-76,9 -135,20 -163,33 -756,368 -1928,2284 -2127,2475 -117,113 -157,85 -366,84 -478,-3 -640,216 -1215,80 -384,-90 -501,-53 -819,-53 -11,-474 -335,-860 -555,-1190 -235,-352 -253,-470 -581,-900l-440 -459c-46,-38 -82,-59 -122,-70l-433 0z"/>
   <path class="fil17" d="M6670 5154c-228,94 -20,375 220,260 211,-102 -38,-336 -220,-260z"/>
   <path class="fil18" d="M1704 6861c-214,-9 -198,-262 -89,-343 73,33 60,35 82,147 17,92 23,112 7,197zm5809 -518c-19,-131 94,-177 219,-202l-26 169c-69,26 -94,54 -193,34zm34 -246c4,-112 67,-202 169,-246 2,146 -55,236 -169,246zm-1030 -50c70,53 528,150 538,149 79,-2 196,-82 231,-120 54,-59 31,-79 115,-149 58,-48 0,0 58,-40 -109,535 -806,434 -943,160zm-4357 124c30,-33 5,-13 48,-44l564 -277c-73,230 -311,347 -612,322zm-431 -257c49,58 71,53 108,146 -165,-17 -262,-102 -231,-265 100,43 55,38 123,119zm1273 -341c-97,51 -290,113 -408,172 -351,176 -530,184 -721,-239 -105,-232 -67,-259 49,-434 88,-133 133,-211 310,-273 200,-69 486,42 503,57 20,18 39,51 53,75 93,164 191,466 215,641zm3209 115c25,-308 160,-676 374,-801 -51,95 -90,91 -130,198 242,-152 446,-200 728,-28 136,84 375,470 410,560 -327,78 -201,511 -668,445 -310,-44 -403,-303 -714,-375zm-2251 -1027c101,-60 229,15 327,69 599,329 520,-37 1002,-54 -111,149 -440,318 -671,280 -219,-36 -454,-219 -658,-295zm1401 -21c12,-48 38,-84 88,-96 98,-23 87,23 99,32 -65,67 -63,61 -187,64zm847 41c70,17 29,-9 77,30 12,150 -177,468 -342,499 -97,-160 -38,-414 120,-471l42 -59c2,-3 29,-46 31,-48 267,-345 510,-297 803,-253 6,3 14,6 18,8 4,2 13,6 18,8 5,2 13,5 19,8 6,2 13,5 19,8 35,14 54,20 78,31l88 25c149,42 230,121 241,294 -86,-17 -178,-136 -332,-189 -82,-28 -151,-29 -217,-49 -115,-36 -49,-41 -78,-99l-121 1c-209,3 -390,149 -463,256zm-3958 -295c-37,37 24,-3 -67,53l-188 98c13,-121 159,-248 368,-232 275,52 273,-41 514,143 198,150 162,289 252,390 11,-66 -4,-24 25,-60 35,79 316,537 65,582 -164,29 -190,-261 -206,-393 -22,-187 6,-140 28,-152 -154,-360 -318,-458 -789,-430zm864 -233c207,-119 486,260 445,468 -149,13 -173,-97 -249,-212 -60,-91 -167,-188 -196,-256zm2772 154c9,-31 29,-51 54,-78 33,-36 82,-78 134,-106 110,-59 247,-77 377,-53 -38,150 -502,344 -558,328l-8 -90zm-4253 -118c32,-99 40,-101 149,-129 -44,87 -51,97 -149,129zm3211 -917c335,132 675,-145 965,-45 -34,90 -79,95 -166,148 -505,304 -588,297 -1136,24 -202,-100 -286,-82 -459,-142 104,-315 578,-71 797,15zm1055 -41c159,-264 462,-1 272,63l-133 3c-70,-14 -100,-34 -139,-66zm3325 -831c-77,-103 -36,-763 6,-884 238,95 170,754 -6,884zm-7930 -177c-95,-31 -23,21 -89,-70 -144,-202 -129,-673 2,-798 113,67 103,240 111,391 8,150 36,344 -24,477zm7181 -571c-75,139 -191,411 -184,580 484,132 126,392 19,558 -151,232 -22,307 119,416 291,225 -153,566 -181,900l30 263c-78,-69 -222,-290 -207,-445 18,-180 207,-314 -1,-437 -100,-59 -109,-38 -194,-124 -493,-500 315,-1511 596,-1945 74,-114 177,-294 286,-364l-283 599zm-6411 1878c-6,-270 -237,-414 -107,-669 157,-308 204,-201 -42,-494 -207,-248 153,-190 144,-513 -6,-242 -146,-425 -189,-622 -70,-132 -146,-216 -213,-343 340,206 607,739 798,1071 585,1013 -190,939 -264,1163 -13,40 253,478 -316,759 47,-120 152,-190 188,-352zm-946 -2736c-159,187 -190,1607 -182,1745 -7,288 -72,471 68,715 109,190 210,241 240,526 0,126 17,167 -59,243 5,-123 21,-239 -76,-305 -64,49 -186,428 -229,527 -98,223 9,443 202,466 115,-15 327,-415 499,-475 -141,391 -550,257 -413,1316 27,207 14,367 14,573 38,-36 20,-6 55,-70 56,-103 54,-373 96,-511 48,173 13,229 26,386 -41,671 -542,1015 -304,1986 80,326 186,454 215,593 201,314 475,550 537,651 57,-36 17,16 12,-39 -2,-20 -14,-48 -22,-66 -21,-45 -40,-78 -63,-128 -114,-259 -193,-553 -358,-759 -567,-783 713,-780 857,-1196 -242,77 -458,39 -451,-236 121,300 366,237 567,66 262,-222 478,-509 716,-765 87,-93 127,-163 223,-253 600,-563 1360,-796 2065,-268 337,252 601,662 871,1044 164,94 294,297 483,370l-415 -688c-302,-472 -337,-336 -552,-542 644,-14 911,1387 1367,1388 231,1 329,-279 436,-458 24,289 -223,369 -240,536 62,136 249,145 424,231 704,348 444,800 151,1204 -77,157 -157,411 -231,542 -68,121 -270,343 -334,398 261,-69 825,-555 1025,-845 309,-446 151,-1050 -140,-1391 -130,-16 -142,-60 -205,-148 -63,-88 -91,-107 -112,-238 201,7 374,141 407,239 22,68 10,113 -27,151 25,41 119,165 164,202 422,-274 -454,-1518 -128,-1999l9 -69c26,117 30,259 75,346 296,-316 24,-825 -41,-1183l167 315c95,56 86,98 212,151 252,31 505,-631 280,-834 -17,27 -41,69 -62,110l-66 109c10,-409 258,-458 398,-676 183,-284 72,-591 126,-937 45,-295 146,-569 159,-885 7,-175 -55,-647 -106,-803 -36,-109 -2,-40 -51,-91 -30,6 14,61 -49,-99 -129,-327 -292,-774 -632,-596 -279,146 -449,328 -639,525 -63,65 -126,112 -189,180 -302,327 -1189,1459 -1252,1800 119,-12 61,-8 100,16 -249,134 -596,29 -924,49 -291,18 -601,142 -871,127 -297,-17 -564,-139 -874,-129 -344,11 -506,166 -715,301 58,-149 212,-191 268,-299 -257,-141 -694,204 -904,273 98,-164 246,-160 328,-236l105 -137c29,-32 54,-60 77,-108 138,-289 -46,-552 -203,-758 -384,-503 -260,-369 -521,-880 -139,-273 -740,-1152 -1127,-665l-258 366z"/>
   <path class="fil18" d="M489 11867c421,-43 940,-132 1346,-129 -47,105 -151,132 -314,210 -427,206 -1028,208 -1031,-81zm249 -985c-159,162 -449,565 -546,794 -30,72 -19,69 -66,118 81,231 3,308 265,433 513,246 1182,-21 1707,-126 418,-83 819,-113 1178,71 436,224 633,178 1097,50 -151,-258 -465,-469 -809,-576 -201,-63 -377,-67 -589,-103 -248,-42 -357,-144 -497,-178 -230,-86 -408,-207 -396,-500 48,31 13,4 50,42 2,2 34,41 38,45 324,399 480,224 536,447 117,27 223,70 348,45 -77,-78 -189,-142 -286,-218 -291,-227 -531,-872 -435,-1031 9,-126 5,-292 66,-375 -42,-63 -219,-202 -281,-246 -262,-60 -337,-80 -543,72 -120,89 -219,221 -306,380 -174,317 -253,702 -530,855z"/>
   <path class="fil18" d="M7386 12134c61,-73 464,-314 686,-310 -50,324 -479,422 -686,310zm228 -2608c28,250 32,318 -32,557 -46,532 -834,756 -911,970 175,53 460,-52 620,-93 29,-30 -2,-3 45,-43l142 -97c63,-39 128,-96 185,-124 -25,150 -133,259 -242,330 -188,123 -207,97 -436,118 -634,69 -897,386 -1087,900 258,42 1033,746 1912,298 148,-75 275,-143 414,-221 125,-71 254,-162 403,-207 239,-72 365,31 574,-2 141,-22 149,-79 203,-227l14 -35c15,-61 33,-9 -9,-76 -2,81 -6,48 -20,73 -55,-141 -263,-553 -354,-614 -139,-105 -387,-446 -507,-570l-321 -366c-80,-109 -364,-542 -371,-618 -110,-11 -145,-7 -221,48z"/>
   <path class="fil19" d="M3946 9586c23,-12 -16,-50 174,-6 52,12 96,23 150,34 472,98 587,57 1063,52l-132 67c-533,117 -934,-65 -1255,-147zm-2366 -1493c227,-102 520,339 625,441 177,172 489,301 830,221 497,-117 702,-452 988,-679 327,-258 403,-298 299,-735 -119,-496 -317,-245 -511,-600 -52,-94 -28,-112 -106,-186 -65,-62 -74,-36 -109,-157 -88,-299 182,-627 324,-728 414,-295 1213,-288 1448,358 57,157 82,289 -30,425 -178,218 -112,454 -517,592 -153,52 -628,19 -317,616 148,284 800,457 1105,560 300,101 510,210 785,327 945,404 1006,-615 1474,-498 -386,229 -259,235 -392,676 -81,268 -253,520 -477,612l73 14c7,1 29,3 34,4l31 5c-209,81 -282,158 -581,161 -620,8 -924,-318 -1163,-240 -207,67 -397,85 -610,2 -342,-132 -228,-229 -536,-169 -479,93 -1424,468 -1798,169l347 43c-388,-197 -430,-192 -606,-618 -108,-262 -329,-525 -609,-618zm-202 72c165,206 244,499 358,759 22,50 42,83 63,128 8,18 20,45 22,66 5,55 45,3 -12,39 87,145 898,767 1002,836 766,509 1202,94 1442,320l-456 56c47,162 735,653 1463,187 283,-181 167,-214 -139,-211 195,-134 438,20 683,-37 135,-31 392,-184 520,-248 192,-95 903,-376 994,-521 64,-56 266,-277 334,-398 74,-131 154,-385 231,-542 -48,-52 -27,15 -6,-56 12,-41 536,-665 -121,-1012 -344,-182 -675,-191 -950,-505 -19,-21 -26,-32 -50,-57 -28,-30 -17,-19 -45,-42 -189,-73 -320,-275 -483,-370 66,127 159,245 244,354 409,528 849,743 899,818 -1041,-136 -1483,-2211 -2639,-2385 -845,-127 -1329,454 -1611,900 -158,250 -308,511 -453,790 -142,274 -308,564 -603,631 47,-104 166,-150 234,-234 73,-91 116,-155 181,-269 64,-114 266,-487 288,-591 -66,32 -307,338 -377,422 -403,483 -1134,518 -1080,906 17,120 100,198 70,265z"/>
   <path class="fil20" d="M4106 6469c35,-200 -46,-200 -78,-346 89,49 209,136 188,299 -24,183 -166,152 -327,221 -19,288 647,507 1021,258 86,-57 229,-171 206,-298 -176,-22 -334,7 -437,-117 -109,-130 -67,-335 57,-420 -21,186 -47,353 128,419 520,199 653,-633 -57,-843 -1090,-322 -1517,1137 -700,828z"/>
   <path class="fil21" d="M5571 8580c99,208 -108,538 -246,459 -83,-48 56,-187 84,-237 67,-117 47,-204 161,-223zm-1503 84c70,75 234,221 330,295 125,96 203,163 376,232 351,139 809,-22 866,-252 92,-219 193,-420 -41,-574 -214,-141 -480,-49 -581,120l-37 286 -14 -242c-92,-137 -43,-212 -199,-311 -234,-149 -468,-191 -656,54 -96,126 -62,238 -45,393z"/>
   <path class="fil22" d="M9003 4234c225,203 -28,864 -280,834 -126,-53 -117,-95 -212,-151 42,121 82,305 143,391 250,21 770,-583 473,-1155 -85,14 -83,14 -125,81z"/>
   <path class="fil23" d="M6518 6048c137,274 834,375 943,-160 -58,40 0,-8 -58,40 -85,70 -61,90 -115,149 -35,38 -152,118 -231,120 -10,0 -468,-97 -538,-149z"/>
   <path class="fil24" d="M7179 4468l-88 -25 -54 24c95,44 163,107 237,138l-66 -104c-3,-4 -12,-6 -15,-16 -2,-10 -10,-11 -15,-17z"/>
   <path class="fil25" d="M1635 4189c99,-31 105,-42 149,-129 -110,28 -117,30 -149,129z"/>
   <path class="fil12" d="M3148 5262c39,-65 41,-45 -3,-129 -4,7 -20,1 -20,51 1,53 1,27 22,78z"/>
   <path class="fil17" d="M6999 5427c24,0 44,20 44,44 0,24 -20,44 -44,44 -24,0 -44,-20 -44,-44 0,-24 20,-44 44,-44z"/>
   <path class="fil17" d="M2258 5157c-24,0 -44,20 -44,44 0,24 20,44 44,44 24,0 44,-20 44,-44 0,-24 -20,-44 -44,-44z"/>
   <path class="fil17" d="M2570 5262c232,-41 70,-345 -146,-303 -218,51 -39,336 146,303z"/>
  </g>
 </g>
</svg>
