<?xml version="1.0" encoding="UTF-8"?>
<!DOCTYPE svg PUBLIC "-//W3C//DTD SVG 1.1//EN" "http://www.w3.org/Graphics/SVG/1.1/DTD/svg11.dtd">
<!-- Creator: CorelDRAW 2017 -->
<svg xmlns="http://www.w3.org/2000/svg" xml:space="preserve" width="230mm" height="194.25mm" version="1.1" style="shape-rendering:geometricPrecision; text-rendering:geometricPrecision; image-rendering:optimizeQuality; fill-rule:evenodd; clip-rule:evenodd"
viewBox="0 0 23000 19425"
 xmlns:xlink="http://www.w3.org/1999/xlink">
 <defs>
  <style type="text/css">
   <![CDATA[
    .str0 {stroke:#414E5E;stroke-width:15.88}
    .fil1 {fill:none}
    .fil0 {fill:#FFF5C7}
   ]]>
  </style>
 </defs>
 <g id="Capa_x0020_1">
  <metadata id="CorelCorpID_0Corel-Layer"/>
  <g id="_2402999143920">
   <g>
    <g>
     <path class="fil0" d="M4286 2686c-22,-41 -60,-85 -77,-128 -25,-63 -3,-79 55,-52 87,41 205,172 183,260 -36,139 -137,-30 -164,-82l0 3 3 0z"/>
     <path class="fil0" d="M4325 1687c44,-22 112,82 150,139 22,30 126,158 79,183 -79,44 -268,-210 -230,-325l3 0 -3 3z"/>
     <path class="fil0" d="M4322 3121c-55,-60 -120,-161 -145,-224 -11,-30 -27,-77 19,-71 55,5 112,74 142,126 25,38 63,112 68,164 11,87 -52,44 -87,8l3 0 0 -3z"/>
     <path class="fil0" d="M3598 2856c-82,-5 -101,-63 -137,-131 -30,-55 -74,-120 -71,-189 115,-3 243,183 208,320z"/>
     <path class="fil0" d="M3745 3022c36,8 68,60 107,96 25,22 112,115 55,172 -52,55 -153,-107 -186,-202 -11,-27 -27,-79 25,-68l0 3z"/>
     <path class="fil0" d="M3729 1654c-33,-44 -60,-101 -63,-145 -3,-27 3,-49 36,-41 60,16 145,139 175,208 27,57 0,77 -36,68 -41,-11 -90,-60 -115,-93l3 3z"/>
     <path class="fil0" d="M4844 3014c-98,8 -224,-232 -189,-298 57,0 55,8 82,44 44,60 117,175 107,254z"/>
     <path class="fil0" d="M3904 2908c-63,-27 -150,-208 -153,-295 82,16 112,74 153,131 41,55 101,134 3,164l-3 0z"/>
     <path class="fil0" d="M4489 2408c-60,-8 -123,-169 -142,-216 -11,-25 -33,-131 25,-93 52,36 145,178 161,249 8,36 -3,63 -44,60l0 3 0 -3z"/>
     <path class="fil0" d="M4144 2282c-49,-63 -79,-101 -112,-178 -16,-36 -25,-112 36,-74 55,36 134,153 153,189 49,96 -19,134 -77,60l0 3z"/>
     <path class="fil0" d="M4128 1643c36,41 98,134 71,172 -44,30 -243,-197 -232,-262 38,-66 139,66 158,93l3 -3z"/>
     <path class="fil0" d="M3565 2391c-74,-16 -126,-150 -153,-249 -11,-36 3,-57 41,-38 19,8 30,22 41,36 27,36 71,107 93,145 11,16 19,44 22,68 3,30 -8,44 -41,36l3 3 -5 0z"/>
     <path class="fil0" d="M4868 2520c-30,8 -49,3 -68,-8 -46,-36 -104,-153 -112,-210 -8,-41 8,-68 49,-41 30,22 74,79 107,134 30,55 49,109 27,128l0 -3 -3 0z"/>
     <path class="fil0" d="M4311 1416c27,5 82,63 107,87 55,44 117,98 93,145 -22,49 -60,22 -93,-5 -49,-41 -82,-101 -117,-158 -16,-27 -41,-79 8,-68l3 0z"/>
     <path class="fil0" d="M3650 1938c-16,-36 -49,-82 -19,-117 36,-14 55,8 117,74 22,25 38,60 44,90 5,27 3,46 -11,57 -49,36 -115,-71 -131,-104l-3 -3 3 3z"/>
     <path class="fil0" d="M4898 2023c-82,8 -164,-158 -150,-232 55,-3 74,41 107,82 30,41 68,82 41,150l3 0z"/>
     <path class="fil0" d="M3931 2547c-30,8 -68,-41 -101,-93 -16,-30 -33,-63 -41,-90 -11,-36 -16,-68 36,-55 33,11 66,44 82,79 22,44 55,145 27,158l-3 0z"/>
     <path class="fil0" d="M3502 1831c52,96 30,107 -11,96 -98,-30 -210,-246 -90,-205 44,14 79,71 101,112l3 0 -3 -3z"/>
    </g>
    <g>
     <path class="fil1 str0" d="M6849 13366c-464,96 -1106,90 -1781,-265 303,-11 997,189 1199,546 145,260 -11,311 -251,336 -221,25 -500,-11 -762,-93 -199,-63 -391,-164 -538,-279 -145,-115 -429,-344 -107,-380 276,-30 721,49 1123,219 243,101 514,273 683,432 576,546 -912,369 -1156,178"/>
     <path class="fil1 str0" d="M6057 13117c262,164 552,314 598,541 -11,158 -158,202 -306,202 -333,3 -907,-164 -1210,-344 -145,-87 -292,-210 -232,-331 25,-49 112,-96 426,-93"/>
    </g>
    <g>
     <path class="fil1 str0" d="M10750 1870c-464,96 -1106,90 -1781,-265 303,-11 997,189 1199,546 145,260 -11,311 -251,336 -221,25 -500,-11 -762,-93 -199,-63 -391,-164 -538,-279 -145,-115 -429,-344 -107,-380 276,-30 721,49 1123,219 243,101 514,273 683,432 576,546 -912,369 -1156,178"/>
     <path class="fil1 str0" d="M9955 1621c262,164 552,314 598,541 -11,158 -158,202 -306,202 -333,3 -907,-164 -1210,-344 -145,-87 -292,-210 -232,-331 25,-49 112,-96 426,-93"/>
    </g>
    <path class="fil1 str0" d="M2259 10240c464,96 1106,90 1781,-265 -303,-11 -997,189 -1199,546 -145,260 11,311 251,336 221,25 500,-11 762,-93 199,-63 391,-164 538,-279 145,-115 429,-344 107,-380 -276,-30 -721,49 -1123,219 -243,101 -514,273 -683,432 -576,546 912,369 1156,178"/>
    <path class="fil1 str0" d="M3054 9991c-262,164 -552,314 -598,541 11,158 158,202 306,202 333,3 907,-164 1210,-344 145,-87 292,-210 232,-331 -25,-49 -112,-96 -426,-93"/>
    <g>
     <path class="fil1 str0" d="M8936 14191c464,96 1106,90 1781,-265 -303,-11 -997,189 -1199,546 -145,260 11,311 251,336 221,25 500,-11 762,-93 199,-63 391,-164 538,-279 145,-115 429,-344 107,-380 -276,-30 -721,49 -1123,219 -243,101 -514,273 -683,432 -576,546 912,369 1156,178"/>
     <path class="fil1 str0" d="M9728 13943c-262,164 -552,314 -598,541 11,158 158,202 306,202 333,3 907,-164 1210,-344 145,-87 292,-210 232,-331 -25,-49 -112,-96 -426,-93"/>
    </g>
    <g>
     <path class="fil0" d="M2231 15443c-16,-30 -49,-68 -63,-101 -19,-49 0,-63 44,-41 68,33 167,139 148,210 -27,112 -109,-25 -131,-66l3 0 0 -3z"/>
     <path class="fil0" d="M2261 14640c36,-19 93,68 120,112 16,25 101,128 63,150 -63,36 -216,-169 -186,-262l3 0z"/>
     <path class="fil0" d="M2261 15796c-44,-49 -98,-131 -115,-183 -8,-25 -22,-63 16,-57 44,5 87,60 115,101 19,30 49,90 55,134 8,71 -41,36 -68,5l3 0 -5 0z"/>
     <path class="fil0" d="M1677 15583c-66,-3 -82,-52 -112,-104 -25,-44 -60,-98 -57,-153 93,-3 197,145 169,257z"/>
     <path class="fil0" d="M1797 15717c30,8 55,49 85,77 19,16 90,93 44,139 -44,44 -123,-87 -150,-164 -8,-22 -22,-63 19,-55l3 0 0 3z"/>
     <path class="fil0" d="M1780 14613c-27,-36 -49,-82 -49,-115 -3,-22 3,-41 30,-30 46,14 115,112 142,169 22,46 0,60 -27,55 -36,-8 -74,-49 -93,-74l-3 0 0 -5z"/>
     <path class="fil0" d="M2682 15711c-79,8 -183,-189 -150,-240 44,0 44,8 66,36 36,49 93,139 85,205z"/>
     <path class="fil0" d="M1925 15624c-49,-22 -120,-167 -126,-238 66,11 87,60 126,107 33,44 82,107 0,131z"/>
     <path class="fil0" d="M2395 15222c-46,-5 -101,-134 -115,-172 -8,-22 -27,-107 22,-74 41,27 117,145 131,202 8,27 -3,52 -36,46l-3 0 0 -3z"/>
     <path class="fil0" d="M2119 15121c-41,-49 -63,-82 -87,-142 -11,-27 -19,-90 27,-60 44,30 109,126 123,153 41,77 -14,109 -63,49z"/>
     <path class="fil0" d="M2103 14605c27,30 79,109 57,139 -36,25 -197,-158 -189,-213 30,-52 112,55 128,74l3 3 0 -3z"/>
     <path class="fil0" d="M1649 15208c-60,-11 -101,-120 -126,-199 -8,-30 3,-46 33,-30 14,8 25,16 33,30 22,30 57,85 74,115 8,14 16,36 16,55 3,27 -5,36 -30,30l-3 0 3 0z"/>
     <path class="fil0" d="M2701 15309c-27,5 -41,3 -55,-8 -38,-27 -82,-123 -93,-169 -5,-30 8,-57 38,-36 25,16 60,63 85,107 25,44 38,87 22,104l3 0 0 3z"/>
     <path class="fil0" d="M2250 14422c22,5 66,52 87,68 44,36 96,79 77,117 -19,41 -49,16 -74,-5 -41,-33 -68,-82 -93,-128 -11,-22 -33,-63 5,-55l-3 3z"/>
     <path class="fil0" d="M1720 14840c-14,-27 -41,-68 -16,-93 27,-11 44,8 93,60 16,19 30,46 36,74 5,22 3,38 -8,44 -41,27 -93,-57 -107,-82l0 -3 3 0z"/>
     <path class="fil0" d="M2726 14911c-66,8 -131,-128 -120,-186 44,-3 60,33 87,68 27,33 55,66 33,120l0 -3z"/>
     <path class="fil0" d="M1944 15334c-25,5 -55,-33 -82,-74 -14,-25 -27,-49 -36,-74 -11,-30 -14,-55 27,-44 27,8 55,36 68,63 19,36 44,117 22,126l0 3z"/>
     <path class="fil0" d="M1600 14758c44,77 27,87 -8,77 -79,-25 -169,-199 -74,-167 36,11 63,57 82,90z"/>
    </g>
    <path class="fil1 str0" d="M3523 16996c464,96 1106,90 1781,-265 -303,-11 -997,189 -1199,546 -145,260 11,311 251,336 221,25 500,-11 762,-93 199,-63 391,-164 538,-279 145,-115 429,-344 107,-380 -276,-30 -721,49 -1123,219 -243,101 -514,273 -683,432 -576,546 912,369 1156,178"/>
    <path class="fil1 str0" d="M4315 16747c-262,164 -552,314 -598,541 11,158 158,202 306,202 333,3 907,-164 1210,-344 145,-87 292,-210 232,-331 -25,-49 -112,-96 -426,-93"/>
    <path class="fil1 str0" d="M7154 19152c464,-96 1106,-90 1781,265 -303,11 -997,-189 -1199,-546 -145,-260 11,-311 251,-336 221,-25 500,11 762,93 199,63 391,164 538,279 145,115 429,344 107,380 -276,30 -721,-49 -1123,-219 -243,-101 -514,-273 -683,-432 -576,-546 913,-369 1156,-178"/>
    <path class="fil1 str0" d="M7949 19400c-262,-164 -552,-314 -598,-541 11,-158 158,-202 306,-202 333,-3 907,164 1210,344 145,87 292,210 232,331 -25,49 -112,96 -426,93"/>
    <g>
     <path class="fil1 str0" d="M2388 882c-464,-96 -1106,-90 -1781,265 303,11 997,-189 1199,-546 145,-260 -11,-311 -251,-336 -221,-25 -500,11 -762,93 -199,63 -391,164 -538,279 -145,115 -429,344 -107,380 276,30 721,-49 1123,-219 243,-101 514,-273 683,-432 576,-546 -913,-369 -1156,-178"/>
     <path class="fil1 str0" d="M1596 1130c262,-164 552,-314 598,-541 -11,-158 -158,-202 -306,-202 -333,-3 -907,164 -1210,344 -145,87 -292,210 -232,331 25,49 112,96 426,93"/>
    </g>
    <path class="fil1 str0" d="M8258 8694c464,96 1106,90 1781,-265 -303,-11 -997,189 -1199,546 -145,260 11,311 251,336 221,25 500,-11 762,-93 199,-63 391,-164 538,-279 145,-115 429,-344 107,-380 -276,-30 -721,49 -1123,219 -243,101 -514,273 -683,432 -576,546 913,369 1156,178"/>
    <path class="fil1 str0" d="M9053 8443c-262,164 -552,314 -598,541 11,158 158,202 306,202 333,3 907,-164 1210,-344 145,-87 292,-210 232,-331 -25,-49 -112,-96 -426,-93"/>
    <path class="fil0" d="M7291 10522c-25,-44 -66,-93 -82,-139 -27,-68 -3,-87 63,-57 96,46 224,186 202,284 -38,153 -150,-36 -178,-87l-3 3 -3 -3z"/>
    <path class="fil0" d="M7332 9427c49,-27 126,93 167,153 22,33 139,175 87,202 -87,46 -292,-232 -254,-355l0 -3 0 3z"/>
    <path class="fil0" d="M7332 11003c-60,-66 -131,-178 -158,-246 -11,-33 -30,-85 22,-79 60,8 120,82 156,137 27,41 68,123 74,180 11,98 -57,49 -96,8l3 0z"/>
    <path class="fil0" d="M6537 10711c-90,-5 -112,-68 -150,-142 -33,-60 -82,-131 -79,-208 128,-3 268,199 227,350l3 0z"/>
    <path class="fil0" d="M6698 10894c41,11 74,68 117,104 27,25 120,128 60,191 -57,60 -169,-117 -205,-221 -11,-30 -30,-87 27,-74z"/>
    <path class="fil0" d="M6682 9391c-36,-49 -66,-112 -68,-158 -3,-30 3,-55 41,-44 63,19 158,153 191,227 30,63 0,82 -38,74 -46,-11 -98,-66 -126,-101l0 3z"/>
    <path class="fil0" d="M7906 10883c-107,11 -246,-254 -205,-328 63,0 60,11 87,49 49,66 128,191 117,276l0 3z"/>
    <path class="fil0" d="M6873 10768c-68,-30 -164,-227 -169,-322 87,16 120,79 169,145 44,60 112,145 3,178l-3 0z"/>
    <path class="fil0" d="M7515 10219c-63,-8 -134,-183 -156,-238 -11,-27 -36,-145 27,-101 57,38 158,197 178,273 8,38 -3,68 -49,63l0 3z"/>
    <path class="fil0" d="M7138 10082c-55,-68 -87,-112 -120,-194 -16,-38 -27,-123 38,-79 60,41 148,169 169,205 55,104 -22,148 -85,68l-3 0z"/>
    <path class="fil0" d="M7119 9380c38,44 107,150 79,191 -49,33 -268,-216 -254,-290 41,-71 150,74 175,101l0 -3z"/>
    <path class="fil0" d="M6499 10203c-79,-16 -134,-164 -169,-273 -11,-41 3,-63 44,-41 22,11 33,25 44,41 27,41 79,115 101,158 11,19 22,49 25,74 3,36 -8,49 -44,41z"/>
    <path class="fil0" d="M7930 10342c-36,8 -55,3 -74,-11 -52,-38 -115,-169 -126,-229 -8,-44 8,-77 52,-46 36,25 82,87 117,148 33,60 55,120 30,139z"/>
    <path class="fil0" d="M7318 9132c30,8 87,71 117,96 60,49 128,107 104,158 -25,55 -63,22 -101,-5 -55,-44 -93,-112 -128,-175 -16,-30 -46,-85 8,-74z"/>
    <path class="fil0" d="M6594 9703c-19,-38 -55,-90 -22,-128 38,-14 60,8 126,82 25,27 41,63 49,98 8,30 3,52 -11,63 -55,38 -126,-79 -145,-115l3 0z"/>
    <path class="fil0" d="M7966 9798c-87,8 -178,-175 -164,-254 60,-3 82,44 117,93 36,44 74,90 44,164l0 -3 3 0z"/>
    <path class="fil0" d="M6903 10372c-30,8 -77,-44 -112,-101 -19,-33 -36,-68 -46,-98 -14,-41 -19,-77 38,-60 36,11 74,49 93,87 27,49 60,158 27,172z"/>
    <path class="fil0" d="M6433 9591c57,104 36,117 -11,104 -107,-33 -230,-270 -98,-227 49,16 87,79 112,120l0 3 -3 0z"/>
    <g>
     <path class="fil1 str0" d="M8858 5807c-464,-96 -1106,-90 -1781,265 303,11 997,-189 1199,-546 145,-260 -11,-311 -251,-336 -221,-25 -500,11 -762,93 -199,63 -391,164 -538,279 -145,115 -429,344 -107,380 276,30 721,-49 1123,-219 243,-101 514,-273 683,-432 576,-546 -912,-369 -1156,-178"/>
     <path class="fil1 str0" d="M8069 6055c262,-164 552,-314 598,-541 -11,-158 -158,-202 -306,-202 -333,-3 -907,164 -1210,344 -145,87 -292,210 -232,331 25,49 112,96 426,93"/>
    </g>
    <path class="fil1 str0" d="M710 7121c464,-96 1106,-90 1781,265 -303,11 -997,-189 -1199,-546 -145,-260 11,-311 251,-336 221,-25 500,11 762,93 199,63 391,164 538,279 145,115 429,344 107,380 -276,30 -721,-49 -1123,-219 -243,-101 -514,-273 -683,-432 -576,-546 912,-369 1156,-178"/>
    <path class="fil1 str0" d="M1502 7372c-262,-164 -552,-314 -598,-541 11,-158 158,-202 306,-202 333,-3 907,164 1210,344 145,87 292,210 232,331 -25,49 -112,96 -426,93"/>
   </g>
   <g>
    <g>
     <path class="fil0" d="M15963 2686c-22,-41 -60,-85 -77,-128 -25,-63 -3,-79 55,-52 87,41 205,172 183,260 -36,139 -137,-30 -164,-82l0 3 3 0z"/>
     <path class="fil0" d="M16001 1687c44,-22 112,82 150,139 22,30 126,158 79,183 -79,44 -268,-210 -229,-325l3 0 -3 3z"/>
     <path class="fil0" d="M15998 3121c-55,-60 -120,-161 -145,-224 -11,-30 -27,-77 19,-71 55,5 112,74 142,126 25,38 63,112 68,164 11,87 -52,44 -87,8l3 0 0 -3z"/>
     <path class="fil0" d="M15274 2856c-82,-5 -101,-63 -137,-131 -30,-55 -74,-120 -71,-189 115,-3 243,183 208,320z"/>
     <path class="fil0" d="M15422 3022c36,8 68,60 107,96 25,22 112,115 55,172 -52,55 -153,-107 -186,-202 -11,-27 -27,-79 25,-68l0 3z"/>
     <path class="fil0" d="M15405 1654c-33,-44 -60,-101 -63,-145 -3,-27 3,-49 36,-41 60,16 145,139 175,208 27,57 0,77 -36,68 -41,-11 -90,-60 -115,-93l3 3z"/>
     <path class="fil0" d="M16520 3014c-98,8 -224,-232 -189,-298 57,0 55,8 82,44 44,60 117,175 107,254z"/>
     <path class="fil0" d="M15580 2908c-63,-27 -150,-208 -153,-295 82,16 112,74 153,131 41,55 101,134 3,164l-3 0z"/>
     <path class="fil0" d="M16165 2408c-60,-8 -123,-169 -142,-216 -11,-25 -33,-131 25,-93 52,36 145,178 161,249 8,36 -3,63 -44,60l0 3 0 -3z"/>
     <path class="fil0" d="M15821 2282c-49,-63 -79,-101 -112,-178 -16,-36 -25,-112 36,-74 55,36 134,153 153,189 49,96 -19,134 -77,60l0 3z"/>
     <path class="fil0" d="M15804 1643c36,41 98,134 71,172 -44,30 -243,-197 -232,-262 38,-66 139,66 158,93l3 -3z"/>
     <path class="fil0" d="M15241 2391c-74,-16 -126,-150 -153,-249 -11,-36 3,-57 41,-38 19,8 30,22 41,36 27,36 71,107 93,145 11,16 19,44 22,68 3,30 -8,44 -41,36l3 3 -5 0z"/>
     <path class="fil0" d="M16545 2520c-30,8 -49,3 -68,-8 -46,-36 -104,-153 -112,-210 -8,-41 8,-68 49,-41 30,22 74,79 107,134 30,55 49,109 27,128l0 -3 -3 0z"/>
     <path class="fil0" d="M15987 1416c27,5 82,63 107,87 55,44 117,98 93,145 -22,49 -60,22 -93,-5 -49,-41 -82,-101 -117,-158 -16,-27 -41,-79 8,-68l3 0z"/>
     <path class="fil0" d="M15326 1938c-16,-36 -49,-82 -19,-117 36,-14 55,8 117,74 22,25 38,60 44,90 5,27 3,46 -11,57 -49,36 -115,-71 -131,-104l-3 -3 3 3z"/>
     <path class="fil0" d="M16575 2023c-82,8 -164,-158 -150,-232 55,-3 74,41 107,82 30,41 68,82 41,150l3 0z"/>
     <path class="fil0" d="M15608 2547c-30,8 -68,-41 -101,-93 -16,-30 -33,-63 -41,-90 -11,-36 -16,-68 36,-55 33,11 66,44 82,79 22,44 55,145 27,158l-3 0z"/>
     <path class="fil0" d="M15179 1831c52,96 30,107 -11,96 -98,-30 -210,-246 -90,-205 44,14 79,71 101,112l3 0 -3 -3z"/>
    </g>
    <g>
     <path class="fil1 str0" d="M18526 13366c-464,96 -1106,90 -1781,-265 303,-11 997,189 1199,546 145,260 -11,311 -251,336 -221,25 -500,-11 -762,-93 -199,-63 -391,-164 -538,-279 -145,-115 -429,-344 -107,-380 276,-30 721,49 1123,219 243,101 514,273 683,432 576,546 -913,369 -1156,178"/>
     <path class="fil1 str0" d="M17733 13117c262,164 552,314 598,541 -11,158 -158,202 -306,202 -333,3 -907,-164 -1210,-344 -145,-87 -292,-210 -232,-331 25,-49 112,-96 426,-93"/>
    </g>
    <g>
     <path class="fil1 str0" d="M22426 1870c-464,96 -1106,90 -1781,-265 303,-11 997,189 1199,546 145,260 -11,311 -251,336 -221,25 -500,-11 -762,-93 -199,-63 -391,-164 -538,-279 -145,-115 -429,-344 -107,-380 276,-30 721,49 1123,219 243,101 514,273 683,432 576,546 -913,369 -1156,178"/>
     <path class="fil1 str0" d="M21631 1621c262,164 552,314 598,541 -11,158 -158,202 -306,202 -333,3 -907,-164 -1210,-344 -145,-87 -292,-210 -232,-331 25,-49 112,-96 426,-93"/>
    </g>
    <path class="fil1 str0" d="M13935 10240c464,96 1106,90 1781,-265 -303,-11 -997,189 -1199,546 -145,260 11,311 251,336 221,25 500,-11 762,-93 199,-63 391,-164 538,-279 145,-115 429,-344 107,-380 -276,-30 -721,49 -1123,219 -243,101 -514,273 -683,432 -576,546 913,369 1156,178"/>
    <path class="fil1 str0" d="M14730 9991c-262,164 -552,314 -598,541 11,158 158,202 306,202 333,3 907,-164 1210,-344 145,-87 292,-210 232,-331 -25,-49 -112,-96 -426,-93"/>
    <g>
     <path class="fil1 str0" d="M20612 14191c464,96 1106,90 1781,-265 -303,-11 -997,189 -1199,546 -145,260 11,311 251,336 221,25 500,-11 762,-93 199,-63 391,-164 538,-279 145,-115 429,-344 107,-380 -276,-30 -721,49 -1123,219 -243,101 -514,273 -683,432 -576,546 913,369 1156,178"/>
     <path class="fil1 str0" d="M21404 13943c-262,164 -552,314 -598,541 11,158 158,202 306,202 333,3 907,-164 1210,-344 145,-87 292,-210 232,-331 -25,-49 -112,-96 -426,-93"/>
    </g>
    <g>
     <path class="fil0" d="M13907 15443c-16,-30 -49,-68 -63,-101 -19,-49 0,-63 44,-41 68,33 167,139 148,210 -27,112 -109,-25 -131,-66l3 0 0 -3z"/>
     <path class="fil0" d="M13938 14640c36,-19 93,68 120,112 16,25 101,128 63,150 -63,36 -216,-169 -186,-262l3 0z"/>
     <path class="fil0" d="M13938 15796c-44,-49 -98,-131 -115,-183 -8,-25 -22,-63 16,-57 44,5 87,60 115,101 19,30 49,90 55,134 8,71 -41,36 -68,5l3 0 -5 0z"/>
     <path class="fil0" d="M13353 15583c-66,-3 -82,-52 -112,-104 -25,-44 -60,-98 -57,-153 93,-3 197,145 169,257z"/>
     <path class="fil0" d="M13473 15717c30,8 55,49 85,77 19,16 90,93 44,139 -44,44 -123,-87 -150,-164 -8,-22 -22,-63 19,-55l3 0 0 3z"/>
     <path class="fil0" d="M13457 14613c-27,-36 -49,-82 -49,-115 -3,-22 3,-41 30,-30 46,14 115,112 142,169 22,46 0,60 -27,55 -36,-8 -74,-49 -93,-74l-3 0 0 -5z"/>
     <path class="fil0" d="M14358 15711c-79,8 -183,-189 -150,-240 44,0 44,8 66,36 36,49 93,139 85,205z"/>
     <path class="fil0" d="M13602 15624c-49,-22 -120,-167 -126,-238 66,11 87,60 126,107 33,44 82,107 0,131z"/>
     <path class="fil0" d="M14071 15222c-46,-5 -101,-134 -115,-172 -8,-22 -27,-107 22,-74 41,27 117,145 131,202 8,27 -3,52 -36,46l-3 0 0 -3z"/>
     <path class="fil0" d="M13795 15121c-41,-49 -63,-82 -87,-142 -11,-27 -19,-90 27,-60 44,30 109,126 123,153 41,77 -14,109 -63,49z"/>
     <path class="fil0" d="M13779 14605c27,30 79,109 57,139 -36,25 -197,-158 -189,-213 30,-52 112,55 128,74l3 3 0 -3z"/>
     <path class="fil0" d="M13326 15208c-60,-11 -101,-120 -126,-199 -8,-30 3,-46 33,-30 14,8 25,16 33,30 22,30 57,85 74,115 8,14 16,36 16,55 3,27 -5,36 -30,30l-3 0 3 0z"/>
     <path class="fil0" d="M14377 15309c-27,5 -41,3 -55,-8 -38,-27 -82,-123 -93,-169 -5,-30 8,-57 38,-36 25,16 60,63 85,107 25,44 38,87 22,104l3 0 0 3z"/>
     <path class="fil0" d="M13927 14422c22,5 66,52 87,68 44,36 96,79 76,117 -19,41 -49,16 -74,-5 -41,-33 -68,-82 -93,-128 -11,-22 -33,-63 5,-55l-3 3z"/>
     <path class="fil0" d="M13397 14840c-14,-27 -41,-68 -16,-93 27,-11 44,8 93,60 16,19 30,46 36,74 5,22 3,38 -8,44 -41,27 -93,-57 -107,-82l0 -3 3 0z"/>
     <path class="fil0" d="M14402 14911c-66,8 -131,-128 -120,-186 44,-3 60,33 87,68 27,33 55,66 33,120l0 -3z"/>
     <path class="fil0" d="M13621 15334c-25,5 -55,-33 -82,-74 -14,-25 -27,-49 -36,-74 -11,-30 -14,-55 27,-44 27,8 55,36 68,63 19,36 44,117 22,126l0 3z"/>
     <path class="fil0" d="M13276 14758c44,77 27,87 -8,77 -79,-25 -169,-199 -74,-167 36,11 63,57 82,90z"/>
    </g>
    <path class="fil1 str0" d="M15199 16996c464,96 1106,90 1781,-265 -303,-11 -997,189 -1199,546 -145,260 11,311 251,336 221,25 500,-11 762,-93 199,-63 391,-164 538,-279 145,-115 429,-344 107,-380 -276,-30 -721,49 -1123,219 -243,101 -514,273 -683,432 -576,546 913,369 1156,178"/>
    <path class="fil1 str0" d="M15991 16747c-262,164 -552,314 -598,541 11,158 158,202 306,202 333,3 907,-164 1210,-344 145,-87 292,-210 232,-331 -25,-49 -112,-96 -426,-93"/>
    <path class="fil1 str0" d="M18830 19152c464,-96 1106,-90 1781,265 -303,11 -997,-189 -1199,-546 -145,-260 11,-311 251,-336 221,-25 500,11 762,93 199,63 391,164 538,279 145,115 429,344 107,380 -276,30 -721,-49 -1123,-219 -243,-101 -514,-273 -683,-432 -576,-546 912,-369 1156,-178"/>
    <path class="fil1 str0" d="M19625 19400c-262,-164 -552,-314 -598,-541 11,-158 158,-202 306,-202 333,-3 907,164 1210,344 145,87 292,210 232,331 -25,49 -112,96 -426,93"/>
    <g>
     <path class="fil1 str0" d="M14064 882c-464,-96 -1106,-90 -1781,265 303,11 997,-189 1199,-546 145,-260 -11,-311 -251,-336 -221,-25 -500,11 -762,93 -199,63 -391,164 -538,279 -145,115 -429,344 -107,380 276,30 721,-49 1123,-219 243,-101 514,-273 683,-432 576,-546 -912,-369 -1156,-178"/>
     <path class="fil1 str0" d="M13272 1130c262,-164 552,-314 598,-541 -11,-158 -158,-202 -306,-202 -333,-3 -907,164 -1210,344 -145,87 -292,210 -232,331 25,49 112,96 426,93"/>
    </g>
    <path class="fil1 str0" d="M19935 8694c464,96 1106,90 1781,-265 -303,-11 -997,189 -1199,546 -145,260 11,311 251,336 221,25 500,-11 762,-93 199,-63 391,-164 538,-279 145,-115 429,-344 107,-380 -276,-30 -721,49 -1123,219 -243,101 -514,273 -683,432 -576,546 912,369 1156,178"/>
    <path class="fil1 str0" d="M20730 8443c-262,164 -552,314 -598,541 11,158 158,202 306,202 333,3 907,-164 1210,-344 145,-87 292,-210 232,-331 -25,-49 -112,-96 -426,-93"/>
    <path class="fil0" d="M18967 10522c-25,-44 -66,-93 -82,-139 -27,-68 -3,-87 63,-57 96,46 224,186 202,284 -38,153 -150,-36 -178,-87l-3 3 -3 -3z"/>
    <path class="fil0" d="M19008 9427c49,-27 126,93 167,153 22,33 139,175 87,202 -87,46 -292,-232 -254,-355l0 -3 0 3z"/>
    <path class="fil0" d="M19008 11003c-60,-66 -131,-178 -158,-246 -11,-33 -30,-85 22,-79 60,8 120,82 156,137 27,41 68,123 74,180 11,98 -57,49 -96,8l3 0z"/>
    <path class="fil0" d="M18213 10711c-90,-5 -112,-68 -150,-142 -33,-60 -82,-131 -79,-208 128,-3 268,199 227,350l3 0z"/>
    <path class="fil0" d="M18375 10894c41,11 74,68 117,104 27,25 120,128 60,191 -57,60 -169,-117 -205,-221 -11,-30 -30,-87 27,-74z"/>
    <path class="fil0" d="M18358 9391c-36,-49 -66,-112 -68,-158 -3,-30 3,-55 41,-44 63,19 158,153 191,227 30,63 0,82 -38,74 -46,-11 -98,-66 -126,-101l0 3z"/>
    <path class="fil0" d="M19582 10883c-107,11 -246,-254 -205,-328 63,0 60,11 87,49 49,66 128,191 117,276l0 3z"/>
    <path class="fil0" d="M18549 10768c-68,-30 -164,-227 -169,-322 87,16 120,79 169,145 44,60 112,145 3,178l-3 0z"/>
    <path class="fil0" d="M19191 10219c-63,-8 -134,-183 -156,-238 -11,-27 -36,-145 27,-101 57,38 158,197 178,273 8,38 -3,68 -49,63l0 3z"/>
    <path class="fil0" d="M18814 10082c-55,-68 -87,-112 -120,-194 -16,-38 -27,-123 38,-79 60,41 148,169 169,205 55,104 -22,148 -85,68l-3 0z"/>
    <path class="fil0" d="M18795 9380c38,44 107,150 79,191 -49,33 -268,-216 -254,-290 41,-71 150,74 175,101l0 -3z"/>
    <path class="fil0" d="M18175 10203c-79,-16 -134,-164 -169,-273 -11,-41 3,-63 44,-41 22,11 33,25 44,41 27,41 79,115 101,158 11,19 22,49 25,74 3,36 -8,49 -44,41z"/>
    <path class="fil0" d="M19607 10342c-36,8 -55,3 -74,-11 -52,-38 -115,-169 -126,-229 -8,-44 8,-77 52,-46 36,25 82,87 117,148 33,60 55,120 30,139z"/>
    <path class="fil0" d="M18995 9132c30,8 87,71 117,96 60,49 128,107 104,158 -25,55 -63,22 -101,-5 -55,-44 -93,-112 -128,-175 -16,-30 -46,-85 8,-74z"/>
    <path class="fil0" d="M18271 9703c-19,-38 -55,-90 -22,-128 38,-14 60,8 126,82 25,27 41,63 49,98 8,30 3,52 -11,63 -55,38 -126,-79 -145,-115l3 0z"/>
    <path class="fil0" d="M19642 9798c-87,8 -178,-175 -164,-254 60,-3 82,44 117,93 36,44 74,90 44,164l0 -3 3 0z"/>
    <path class="fil0" d="M18579 10372c-30,8 -77,-44 -112,-101 -19,-33 -36,-68 -46,-98 -14,-41 -19,-77 38,-60 36,11 74,49 93,87 27,49 60,158 27,172z"/>
    <path class="fil0" d="M18110 9591c57,104 36,117 -11,104 -107,-33 -230,-270 -98,-227 49,16 87,79 112,120l0 3 -3 0z"/>
    <g>
     <path class="fil1 str0" d="M20534 5807c-464,-96 -1106,-90 -1781,265 303,11 997,-189 1199,-546 145,-260 -11,-311 -251,-336 -221,-25 -500,11 -762,93 -199,63 -391,164 -538,279 -145,115 -429,344 -107,380 276,30 721,-49 1123,-219 243,-101 514,-273 683,-432 576,-546 -912,-369 -1156,-178"/>
     <path class="fil1 str0" d="M19745 6055c262,-164 552,-314 598,-541 -11,-158 -158,-202 -306,-202 -333,-3 -907,164 -1210,344 -145,87 -292,210 -232,331 25,49 112,96 426,93"/>
    </g>
    <path class="fil1 str0" d="M12386 7121c464,-96 1106,-90 1781,265 -303,11 -997,-189 -1199,-546 -145,-260 11,-311 251,-336 221,-25 500,11 762,93 199,63 391,164 538,279 145,115 429,344 107,380 -276,30 -721,-49 -1123,-219 -243,-101 -514,-273 -683,-432 -576,-546 913,-369 1156,-178"/>
    <path class="fil1 str0" d="M13178 7372c-262,-164 -552,-314 -598,-541 11,-158 158,-202 306,-202 333,-3 907,164 1210,344 145,87 292,210 232,331 -25,49 -112,96 -426,93"/>
   </g>
  </g>
 </g>
</svg>
