<?xml version="1.0" encoding="UTF-8"?>
<!DOCTYPE svg PUBLIC "-//W3C//DTD SVG 1.1//EN" "http://www.w3.org/Graphics/SVG/1.1/DTD/svg11.dtd">
<!-- Creator: CorelDRAW 2017 -->
<svg xmlns="http://www.w3.org/2000/svg" xml:space="preserve" width="37.43mm" height="33.66mm" version="1.1" style="shape-rendering:geometricPrecision; text-rendering:geometricPrecision; image-rendering:optimizeQuality; fill-rule:evenodd; clip-rule:evenodd"
viewBox="0 0 3743 3366"
 xmlns:xlink="http://www.w3.org/1999/xlink">
 <defs>
  <style type="text/css">
   <![CDATA[
    .fil3 {fill:#891A1A}
    .fil1 {fill:#DC8B4A}
    .fil2 {fill:#F8E9A4}
    .fil0 {fill:#FEC161}
   ]]>
  </style>
 </defs>
 <g id="Capa_x0020_1">
  <metadata id="CorelCorpID_0Corel-Layer"/>
  <g id="_2189644531408">
   <path class="fil0" d="M388 1677c85,-46 122,-39 210,43 55,50 98,106 143,171 39,56 224,340 225,403 32,25 6,78 -45,121 -137,92 -440,213 -320,441 51,47 131,-10 172,-34 279,-165 289,-80 485,-141 54,-17 123,-53 157,-85 62,-49 61,-160 69,-217 58,12 110,32 174,35 96,5 104,-22 163,-34 31,34 91,147 93,149 44,78 62,137 75,243 12,102 2,206 -27,299 -35,113 -112,213 -89,244 44,35 190,15 233,-17 121,-87 221,-328 244,-485 23,-152 15,-316 -1,-468 -16,-156 -3,-311 7,-468 5,-73 17,-143 27,-216 15,-114 -1,-95 78,-147 399,-261 263,-571 677,-775 397,-196 484,71 561,-68 37,-68 -10,-176 -41,-212 -61,-70 -207,-147 -351,-147 -375,2 -608,410 -762,699 -79,148 -83,197 -171,289 -191,129 -476,45 -665,29 -139,-2 -269,-12 -356,-5 -81,0 -23,-37 -16,-78 34,-55 46,-123 59,-183 188,-146 279,-178 331,-330 -53,-66 -241,-157 -355,-171 -69,-2 -113,-36 -151,-76 -81,-60 -164,-107 -249,-140 -26,-42 1,-319 -70,-327 -82,-10 -327,231 -394,282 -233,36 -599,279 -452,764 80,187 277,203 331,612z"/>
   <path class="fil1" d="M755 2834c18,102 61,195 47,310 -6,54 -51,107 -48,138 5,56 118,62 168,43 88,-35 108,-138 118,-254 10,-114 23,-245 30,-359 -122,10 -233,76 -316,123z"/>
   <path class="fil1" d="M1670 2526c82,132 201,102 215,130 20,37 -229,316 -37,286 26,-7 131,-85 136,-99 1,-57 -7,-122 -23,-177 -18,-63 -61,-110 -74,-154l-217 14z"/>
   <path class="fil1" d="M1468 1334c33,78 117,283 130,368 9,55 17,91 80,83 38,-112 -65,-349 -100,-449 -27,-8 -88,-10 -110,-2z"/>
   <path class="fil1" d="M647 2572c8,-2 210,-128 222,-149 -3,-2 -144,-71 -346,-256 9,107 72,333 125,405z"/>
   <path class="fil1" d="M1957 1365c-21,-19 -83,-19 -116,-24 31,73 74,183 99,266 58,193 -7,245 89,225 51,-151 -74,-456 -72,-467z"/>
   <path class="fil1" d="M1089 428c22,2 51,14 54,11 14,-13 -227,-121 -191,-85 11,13 6,17 5,20 -67,39 -191,108 -245,159 -27,25 -51,49 -31,93 76,29 306,-228 409,-198z"/>
   <path class="fil1" d="M1271 578c49,9 -44,-68 -74,-88 -2,27 -2,20 -16,36l-84 69c-33,29 -91,58 -68,111 100,36 145,-128 242,-128z"/>
   <path class="fil1" d="M814 322c25,-1 38,-3 43,-5 40,-15 -89,-48 -192,-21 -48,13 -201,63 -149,126 33,20 107,-28 141,-45 57,-28 86,-49 156,-56z"/>
   <path class="fil2" d="M388 1677c19,192 63,376 200,510 37,36 246,231 314,212 61,-17 51,-75 64,-106 -1,-63 -186,-347 -225,-403 -45,-65 -88,-120 -143,-171 -88,-81 -125,-88 -210,-43z"/>
   <path class="fil2" d="M1489 2471c112,28 244,40 370,25l-26 -120c-59,13 -78,44 -174,39 -64,-4 -116,-23 -174,-35l4 92z"/>
   <path class="fil2" d="M1435 903c25,-12 109,-96 124,-125l-145 -60 20 186z"/>
   <path class="fil3" d="M602 870c-42,1 -89,-3 -129,-11 -21,-4 -38,-3 -31,-27 8,-25 -12,-53 -37,-24 -20,23 2,71 37,85 39,16 126,9 154,24 13,7 58,75 84,94 21,16 79,43 120,36 28,-5 23,-24 4,-35 -34,-19 -113,4 -175,-132 37,-1 65,4 86,-11 18,-13 17,-21 1,-35 -11,-10 -23,-13 -39,-23 -19,-12 -36,-28 -55,-40 -79,-48 -35,68 -21,98z"/>
   <path class="fil3" d="M1269 1107c-33,-72 -257,-121 -312,-120 -10,0 -17,4 -20,15 -6,21 48,27 69,32 53,11 140,35 186,59 35,18 41,43 65,40 18,-2 19,-9 11,-26z"/>
   <path class="fil3" d="M836 859c24,3 58,4 88,6 36,2 62,5 97,13 22,5 46,11 68,14 16,2 31,3 44,2 30,-4 15,-29 3,-37 -11,-7 -28,-7 -55,-12l-192 -27c-34,-2 -67,-7 -79,9 -19,26 7,29 25,31z"/>
   <path class="fil3" d="M913 1134c14,31 55,82 83,118 11,14 43,68 48,71 39,25 33,-13 23,-38 -14,-33 -40,-65 -57,-87 -40,-52 -54,-84 -75,-93 -26,-12 -31,8 -22,28z"/>
   <path class="fil3" d="M429 519c7,31 45,79 61,107 41,69 39,97 55,108 18,13 26,6 28,-14 4,-39 -32,-90 -50,-119 -40,-66 -53,-104 -80,-101 -15,1 -17,5 -14,19z"/>
   <path class="fil3" d="M1159 1186c-9,-32 -40,-49 -92,-79 -25,-14 -107,-73 -129,-51 -29,30 99,74 157,116 18,13 24,24 33,30 21,15 40,15 31,-17z"/>
   <path class="fil3" d="M442 976c-22,67 56,215 96,194 35,-19 -40,-53 -56,-155 -6,-36 0,-43 -20,-50 -14,-4 -15,-4 -19,11z"/>
   <path class="fil3" d="M772 2844c83,-47 160,-107 282,-116 -8,114 -22,230 -32,344 -10,116 -27,205 -115,241 -49,20 -128,19 -134,-37 -3,-31 35,-74 41,-128 14,-114 -26,-201 -43,-303zm1173 -175c16,55 27,118 25,175 -5,14 -94,75 -121,82 -157,44 74,-239 54,-277 -15,-28 -167,-30 -200,-111l180 -13c13,44 43,82 61,144zm-1101 -240c-12,20 -182,123 -190,125 -53,-72 -105,-248 -115,-354 29,17 45,44 72,67 115,100 200,135 233,163zm715 -1651c-15,29 -99,113 -124,125l-20 -186 145 60zm-858 -477c222,12 493,124 603,327 16,30 44,21 40,-14 -11,-31 -16,-37 -2,-33 36,11 69,15 105,24 101,27 212,78 254,130 -18,88 -196,236 -272,277l4 -54c45,-30 178,-147 180,-204 -43,-17 -174,-79 -211,-85 -12,1 -24,0 -35,5 -8,40 106,473 -131,663 -97,77 -154,70 -177,101 19,49 101,-3 146,-30 119,-71 51,-66 142,-65 42,-1 207,1 356,10 126,7 230,32 351,41 92,7 193,17 314,-68 119,-83 114,-142 193,-289 154,-290 372,-705 748,-707 144,-1 273,78 333,148 31,36 79,108 42,175 -77,140 -166,-123 -563,73 -414,204 -281,515 -680,776 -79,52 -72,44 -87,158 -10,72 -15,146 -19,219 -10,157 -17,309 -1,466 15,152 21,310 -2,462 -24,157 -124,396 -244,484 -43,31 -152,50 -196,14 -23,-31 53,-120 88,-233 29,-93 37,-201 25,-303 -13,-107 -39,-169 -83,-246 -47,-82 -54,-167 -75,-179 -26,-16 -26,16 -25,37l32 109c-126,15 -238,7 -359,-16 -5,-7 -6,-209 -10,-240 -8,-65 -18,-169 -72,-176 -14,33 23,116 30,166 9,68 8,136 8,206 -1,91 -4,108 -58,157 -35,32 -77,56 -131,73 -196,61 -209,-27 -487,139 -41,24 -89,64 -149,55 -120,-228 175,-333 312,-425 85,-57 88,-168 29,-133 -13,31 -3,88 -64,106 -67,19 -276,-175 -314,-212 -138,-134 -181,-319 -200,-510 -54,-408 -224,-425 -304,-612 -21,-50 -68,-231 -30,-250 62,-32 142,-28 187,-28 59,1 23,-36 1,-43 -51,-15 -154,19 -189,21l24 -89c22,-1 46,-1 70,0 46,2 69,5 110,24 34,16 74,33 59,-9 -3,-8 -9,-15 -17,-21 -46,-32 -165,-35 -199,-35 14,-48 43,-84 70,-113 85,42 147,144 171,132 46,-50 -113,-121 -140,-176 28,-25 66,-54 104,-76 110,-65 271,-108 397,-101zm-125 -32c42,-45 242,-201 321,-222 37,59 46,179 52,259 -60,-12 -115,-29 -177,-36 -67,-8 -130,-2 -196,-1zm-324 1112c27,50 50,108 67,165 24,82 23,139 33,219 25,215 104,302 130,384 35,162 66,322 144,440 -118,79 -87,313 25,313 20,0 69,-26 85,-34 3,31 13,62 21,98 53,263 -29,208 -29,308 0,33 32,66 59,77 100,41 211,-18 254,-128 11,-28 19,-81 25,-139 13,-116 25,-243 35,-360 173,0 358,-77 389,-212 35,1 76,12 111,16 40,5 48,12 58,25 45,60 126,111 203,111 -6,22 -216,305 -42,305 76,0 95,-46 144,-59 0,245 -182,342 -103,424 40,42 175,36 228,6 118,-67 246,-313 276,-452 56,-219 5,-456 5,-681 0,-113 -3,-512 49,-626 12,-26 31,-35 52,-52 215,-168 245,-236 385,-492 60,-110 140,-216 310,-285 329,-133 359,-10 439,-10 108,0 195,-125 85,-280 -42,-59 -133,-120 -221,-153 -131,-49 -274,-28 -398,34 -177,89 -274,205 -366,355 -37,61 -75,123 -111,186 -27,47 -53,94 -78,141 -29,64 -53,119 -81,165 -64,106 -147,162 -346,162 -118,0 -303,-51 -550,-51 -68,0 -135,0 -203,0 16,-40 47,-64 73,-173 19,-78 17,-56 116,-130 64,-47 226,-193 226,-265 0,-73 -216,-147 -268,-164 -45,-15 -181,-37 -205,-58 -85,-75 -173,-150 -282,-190 -3,-45 -35,-312 -79,-322 -85,-18 -327,195 -396,249 -49,48 -56,29 -158,71 -163,66 -298,213 -346,386 -44,158 -11,354 89,488 53,71 97,95 145,185z"/>
  </g>
 </g>
</svg>
