<?xml version="1.0" encoding="UTF-8"?>
<!DOCTYPE svg PUBLIC "-//W3C//DTD SVG 1.1//EN" "http://www.w3.org/Graphics/SVG/1.1/DTD/svg11.dtd">
<!-- Creator: CorelDRAW 2017 -->
<svg xmlns="http://www.w3.org/2000/svg" xml:space="preserve" width="17.5mm" height="17.5mm" version="1.1" style="shape-rendering:geometricPrecision; text-rendering:geometricPrecision; image-rendering:optimizeQuality; fill-rule:evenodd; clip-rule:evenodd"
viewBox="0 0 1750 1750"
 xmlns:xlink="http://www.w3.org/1999/xlink">
 <defs>
  <style type="text/css">
   <![CDATA[
    .str0 {stroke:black;stroke-width:7.62}
    .fil2 {fill:black}
    .fil1 {fill:black}
    .fil0 {fill:white}
   ]]>
  </style>
 </defs>
 <g id="Capa_x0020_1">
  <metadata id="CorelCorpID_0Corel-Layer"/>
  <g id="_2189766428720">
   <path class="fil0" d="M875 0c483,0 875,392 875,875 0,483 -392,875 -875,875 -483,0 -875,-392 -875,-875 0,-483 392,-875 875,-875z"/>
   <path class="fil1" d="M567 1157c0,141 100,116 191,98 234,-45 337,65 404,-17 37,-45 16,-160 -5,-208 -12,-29 -24,-52 -43,-77 -52,-69 -134,-131 -226,-131 -54,0 -74,1 -125,24 -76,34 -139,104 -170,181 -13,33 -26,83 -26,129z"/>
   <path class="fil2 str0" d="M875 1626c-248,0 -475,-123 -615,-321 -152,-214 -176,-497 -69,-737 18,-41 43,-84 68,-120 322,-466 1047,-425 1300,118 67,143 85,322 48,476 -13,55 -28,93 -47,141 -45,111 -118,189 -202,268 -35,33 -132,92 -173,109 -100,42 -193,68 -309,68zm-794 -777l0 60c0,165 92,390 209,505 9,9 16,16 25,25 136,136 336,231 533,231 138,0 252,-19 363,-74 155,-78 260,-170 351,-321 13,-21 22,-40 33,-63 55,-111 74,-224 74,-363 0,-78 -21,-172 -46,-242 -22,-61 -60,-137 -99,-189 -59,-78 -63,-81 -137,-150 -40,-37 -130,-89 -176,-112 -40,-20 -95,-38 -141,-51 -196,-52 -427,-17 -594,84 -21,13 -38,23 -59,37 -87,60 -177,158 -229,250 -12,22 -22,40 -33,63 -37,73 -74,202 -74,310z"/>
   <path class="fil1" d="M928 650c0,54 5,91 38,134 91,121 224,12 224,-108l0 -26c0,-154 -148,-223 -225,-116 -19,26 -36,71 -36,116z"/>
   <path class="fil1" d="M561 650c0,57 5,88 38,134 21,29 51,53 94,52 77,-1 129,-88 129,-167 0,-53 -8,-96 -36,-136 -77,-107 -225,-38 -225,116z"/>
   <path class="fil1" d="M346 892c0,56 7,90 39,133 82,111 220,44 189,-100 -8,-40 -23,-62 -43,-89 -62,-82 -185,-44 -185,56z"/>
   <path class="fil1" d="M1173 951c0,38 1,69 26,97 76,86 206,-9 206,-146 0,-107 -110,-160 -192,-57 -18,23 -39,66 -39,106z"/>
  </g>
 </g>
</svg>
