<?xml version="1.0" encoding="UTF-8"?>
<!DOCTYPE svg PUBLIC "-//W3C//DTD SVG 1.1//EN" "http://www.w3.org/Graphics/SVG/1.1/DTD/svg11.dtd">
<!-- Creator: CorelDRAW 2017 -->
<svg xmlns="http://www.w3.org/2000/svg" xml:space="preserve" width="77.72mm" height="108.81mm" version="1.1" style="shape-rendering:geometricPrecision; text-rendering:geometricPrecision; image-rendering:optimizeQuality; fill-rule:evenodd; clip-rule:evenodd"
viewBox="0 0 7772 10881"
 xmlns:xlink="http://www.w3.org/1999/xlink">
 <defs>
  <style type="text/css">
   <![CDATA[
    .fil1 {fill:#69192B}
    .fil0 {fill:#D38938}
    .fil6 {fill:#D9C5C9}
    .fil3 {fill:#F4AE5A}
    .fil5 {fill:#FE5671}
    .fil2 {fill:#FEFEFE}
    .fil4 {fill:#FFF9D1}
   ]]>
  </style>
 </defs>
 <g id="Capa_x0020_1">
  <metadata id="CorelCorpID_0Corel-Layer"/>
  <g id="_2290243712304">
   <g>
    <path class="fil0" d="M1276 3109c80,-83 144,-276 136,-392 -313,-209 -167,-137 -131,-369 -81,-76 -129,-57 -206,-128 200,-16 166,26 307,71 127,-210 -51,-289 -179,-467l-308 -481c81,329 403,665 453,840 -138,-13 -223,-38 -335,38 29,87 50,89 131,118 -24,306 -8,309 190,434l-58 335z"/>
    <path class="fil0" d="M6378 2615c67,-48 41,-24 71,-78 -129,-42 -214,17 -343,31 42,-81 117,-116 208,-168 184,-105 505,-365 606,-542l-476 394c-89,65 -168,114 -256,172 -175,114 -204,116 -198,222 162,32 158,-71 275,-73 150,-3 73,4 115,42z"/>
    <path class="fil0" d="M5925 3361c85,-43 115,-61 163,-129l-46 -210c128,-83 155,-106 169,-298 32,-17 44,-25 77,-45 11,-7 42,-24 47,-28 43,-30 21,-13 42,-36 -337,24 -175,158 -255,275 -36,52 -95,96 -131,139l47 205 -113 126z"/>
    <path class="fil0" d="M1614 3527c124,-20 186,-43 167,-186 -117,-9 -172,63 -167,186z"/>
    <path class="fil0" d="M5639 3641c1,-122 -46,-209 -169,-169 -2,109 64,159 169,169z"/>
   </g>
   <g>
    <path class="fil1" d="M3405 1212c298,-58 985,6 1189,142 237,61 583,333 723,502 58,70 126,153 211,191 -40,-144 -103,-194 -148,-306 452,-183 2502,-1274 1942,134 -170,428 -358,772 -571,1144 -194,339 -392,863 -793,930 -68,-83 -108,-224 -166,-328 18,387 381,665 65,860l-98 -228c-14,30 -10,6 -18,62 -29,217 214,548 -280,869l-796 485c202,3 680,-324 866,-411 284,750 221,1464 -32,2212 -112,333 -236,644 -342,970 -159,487 -174,592 -23,1085 235,393 308,919 -353,798 -45,-181 -35,-247 -184,-327 34,134 162,296 43,425 -170,185 -1032,67 -879,-714 20,-188 87,-336 98,-537 14,-249 -61,-362 -76,-544 355,-54 732,-203 905,-411l-146 48c-467,276 -1006,333 -1620,216 -255,-49 -521,-138 -732,-248 -161,-84 -511,-300 -555,-406 -50,-27 -59,-29 -107,-50 98,181 424,479 669,556 -74,207 -170,282 -224,570 -36,196 22,577 -97,713 1,479 -893,581 -1003,245 -39,-120 32,-187 98,-271 53,-67 29,-18 66,-99 -142,35 -208,125 -248,261 -778,-6 -364,-717 -151,-822 102,-245 323,-320 304,-946 -32,-1047 -244,-1760 202,-2768 68,-154 160,-286 210,-427 75,28 356,242 420,302 114,106 217,255 391,316l-341 -391c-508,-507 -929,-421 -251,-1238 -111,17 -209,164 -289,225l-113 -98c-49,-58 -48,-58 -58,-147 152,-168 420,-337 474,-598 -129,107 -192,233 -328,326 -401,-131 -494,-642 -618,-1120 -118,-456 -255,-1026 -188,-1530 29,-220 84,-554 339,-443 180,79 573,429 731,581 61,58 168,149 245,208 127,97 411,257 514,361 -41,112 -167,145 -213,268 95,-46 184,-125 274,-186 309,-210 658,-382 1059,-409zm-2228 2347c-194,217 -232,215 51,532 -187,407 -92,337 53,606 -645,1247 -532,1414 -449,2855 41,702 49,944 -325,1364 -106,118 -301,349 -254,605 47,257 252,341 541,345 102,382 855,416 1132,-55 207,-351 65,-710 219,-1118 20,-54 44,-106 72,-155l100 -135c216,64 365,132 608,180 268,53 500,28 739,65 234,684 -154,1003 16,1475 136,377 763,684 1073,306 781,130 715,-323 504,-882 -437,-1156 749,-1906 541,-3649 -37,-308 -127,-479 -177,-732 311,-179 166,-391 265,-569 86,-154 310,-159 108,-549 295,-164 362,-141 593,-538 265,-455 1291,-2098 734,-2378 -431,-216 -1403,287 -1761,435 -409,170 -216,0 -741,-243 -275,-127 -593,-210 -934,-232 -333,-21 -691,23 -986,124 -413,141 -432,347 -798,86 -357,-255 -1042,-929 -1283,-1009 -656,-215 -433,1312 -355,1695 60,292 258,1070 410,1307 110,171 188,143 305,265z"/>
    <path class="fil1" d="M3548 6279c4,-6 9,-22 11,-18 19,45 87,-287 94,-401 19,-351 -41,-1209 70,-1462 222,-25 357,74 494,155 -69,778 163,1305 153,2014 -25,1798 -2088,1583 -1673,-121 163,-667 418,-1087 386,-1865 83,-52 415,-145 536,-179 -15,336 -41,575 -29,926 14,372 -1,594 -42,950zm-654 -1777c-454,10 -581,-340 -628,-399 -56,44 -54,25 -81,115l68 38c36,26 17,11 41,35 30,30 35,46 71,80 48,46 111,90 183,145 113,86 298,170 461,204 -7,183 -35,457 -89,606 -212,-81 -411,-537 -498,-674 65,333 276,662 476,774 -56,481 -363,931 -353,1470 10,532 324,962 801,1016 533,60 912,-389 1044,-775 195,-571 18,-1044 -25,-1605 158,-131 603,-417 605,-773 -117,138 -310,594 -624,657 -26,-159 -66,-438 -36,-607 230,-1 428,-35 589,-142l253 -233c30,-32 13,27 29,-46 15,-66 -12,-78 -50,-118 -91,44 -202,511 -673,320 -244,-99 -418,-314 -734,-298 -301,15 -513,204 -829,211z"/>
    <path class="fil1" d="M4142 3143c52,86 -12,74 -12,74 -94,14 -104,-28 -52,-102 28,5 46,-2 65,28zm-629 48c3,-109 107,-143 211,-161 147,-25 248,-28 250,131 -85,30 -357,53 -461,30zm92 -292c-273,77 -544,371 -338,690 125,193 433,423 801,294 821,-289 287,-1197 -464,-984z"/>
    <path class="fil1" d="M4885 2910c71,30 33,-9 54,74 -89,-31 -58,28 -54,-74zm261 61c-180,80 -312,-200 -38,-166 40,58 55,64 38,166zm-327 -231c131,-20 141,141 -3,100l3 -100zm-205 65l-165 -51c127,130 282,205 416,365 68,81 224,359 278,480l-53 -242c167,-76 334,-64 299,-403 -19,-179 -141,-380 -249,-444 156,21 269,196 361,262 -38,-229 -414,-483 -678,-352 -56,28 -16,14 -63,38 -134,69 8,-84 -94,33 -63,73 -61,220 -53,314z"/>
    <path class="fil1" d="M2777 2743c-4,49 23,44 -31,38 -26,-33 -21,-1 -4,-31 14,-24 8,-7 34,-7zm-240 -17c71,-52 18,-52 120,-15 -4,115 -88,148 -120,15zm156 -50c-68,-137 77,-236 190,-101 -22,91 -80,157 -190,101zm-358 -294l239 -74c-5,34 -398,289 -322,636 28,128 90,106 169,161 -103,44 -147,102 -197,199 152,-101 254,-200 432,-312 178,-112 377,-140 553,-225l-143 -4c73,-216 63,-250 -31,-435l-2 92c-182,-250 -578,-241 -700,-40z"/>
    <path class="fil1" d="M5925 3361l113 -126 -47 -205c36,-43 96,-87 131,-139 80,-117 -82,-251 255,-275 -43,-38 35,-45 -115,-42 -117,2 -112,105 -275,73 -6,-106 23,-108 198,-222 88,-57 167,-107 256,-172l476 -394c66,-121 183,-189 184,-409 -202,305 -262,405 -558,627 -188,141 -690,399 -677,548 51,132 105,95 187,177 -56,127 -191,92 -169,298 32,296 -73,116 -87,357 59,-39 69,-63 126,-96z"/>
    <path class="fil1" d="M895 1343l308 481c128,178 306,257 179,467 -141,-46 -107,-87 -307,-71 77,71 125,52 206,128 -36,233 -183,160 131,369 8,115 -56,309 -136,392l8 102c453,-474 75,-631 35,-686 37,-181 262,-205 187,-418 -31,-86 -333,-378 -514,-751 -70,-146 -110,-335 -176,-463 -25,190 68,306 80,450z"/>
    <path class="fil1" d="M913 8937c141,13 270,61 381,122 224,123 179,160 294,217l-16 -90c-113,-74 -35,-83 -291,-215 -123,-64 -248,-118 -413,-66l45 31z"/>
    <path class="fil1" d="M4101 9497c315,-41 342,-101 728,-69 -33,-39 70,-8 -80,-55l-316 -18c-149,17 -244,63 -332,142z"/>
    <path class="fil1" d="M1728 9411c-18,-68 -24,-64 -94,-99 34,71 26,78 94,99z"/>
    <path class="fil1" d="M2946 2230c-33,-78 -8,-71 -89,-71l89 71z"/>
   </g>
   <g>
    <path class="fil2" d="M5993 4047c203,390 -22,395 -108,549 -99,178 46,390 -265,569 49,252 140,423 177,732 208,1743 -977,2493 -541,3649 211,559 277,1011 -504,882 -310,378 -937,72 -1073,-306 -171,-473 218,-791 -16,-1475 -240,-37 -472,-12 -739,-65 -243,-48 -392,-116 -608,-180l-100 135c-28,49 -51,101 -72,155 -154,408 -12,766 -219,1118 -277,471 -1030,437 -1132,55 -289,-4 -494,-89 -541,-345 -47,-256 149,-487 254,-605 374,-420 365,-662 325,-1364 -83,-1440 -196,-1608 449,-2855 -144,-270 -239,-200 -53,-606 -283,-317 -244,-315 -51,-532 -117,-122 -195,-94 -305,-265 -152,-237 -350,-1015 -410,-1307 -79,-382 -301,-1910 355,-1695 242,79 926,753 1283,1009 366,261 385,55 798,-86 295,-100 653,-145 986,-124 341,22 659,105 934,232 526,242 332,412 741,243 358,-148 1330,-651 1761,-435 557,280 -470,1923 -734,2378 -231,397 -297,374 -593,538zm-5838 -3165c0,701 24,991 223,1670 109,371 200,844 480,1033 -98,206 -43,309 57,475 88,146 -7,119 -7,334 0,267 172,199 43,447 -75,143 -135,268 -190,416 -374,1013 -129,1774 -129,2902 0,543 -603,730 -603,1263 0,550 448,598 597,662 86,37 24,8 109,93 205,205 537,222 812,165 333,-69 550,-307 653,-607 128,-371 25,-756 191,-1071 241,56 278,96 624,156 377,65 532,-68 532,274 0,261 -126,343 -126,834 0,648 787,1101 1355,780 145,-82 143,21 385,-40 379,-96 445,-348 445,-664 0,-553 -478,-653 -58,-1725 361,-923 654,-1793 390,-2802 -118,-449 13,-107 126,-620 89,-406 94,-153 192,-388 59,-141 28,-189 28,-325 307,-163 507,-520 670,-842 38,-76 53,-91 92,-160 197,-354 670,-1226 670,-1650 0,-389 -258,-632 -653,-632 -418,0 -939,226 -1310,375 -150,60 -265,110 -398,180l-281 -198c-429,-260 -837,-311 -1336,-346 -253,-18 -754,71 -1010,175l-337 166c-320,-170 -707,-525 -986,-777 -167,-150 -480,-385 -722,-385 -360,0 -528,452 -528,834z"/>
    <path class="fil2" d="M5146 2971c17,-103 2,-108 -38,-166 -274,-34 -142,246 38,166z"/>
    <path class="fil2" d="M2693 2677c109,55 167,-11 190,-101 -112,-134 -258,-35 -190,101z"/>
    <path class="fil2" d="M2537 2727c32,133 117,99 120,-15 -102,-37 -49,-37 -120,15z"/>
    <path class="fil2" d="M4819 2740l-3 100c143,42 133,-119 3,-100z"/>
    <path class="fil2" d="M2746 2781c54,7 27,12 31,-38 -26,1 -21,-16 -34,7 -18,30 -22,-2 4,31z"/>
   </g>
   <g>
    <path class="fil3" d="M1614 3527c-6,-123 50,-195 167,-186 20,143 -42,166 -167,186zm1596 -758c-177,85 -375,113 -553,225 -178,112 -281,211 -432,312 50,-97 94,-155 197,-199 -79,-56 -142,-33 -169,-161 -75,-347 317,-602 322,-636l-239 74c122,-201 518,-210 700,40l2 -92c94,185 104,219 31,435l143 4zm-353 -610c81,0 56,-7 89,71l-89 -71zm-584 9c183,-364 641,-433 612,-182 -88,50 -222,23 -338,63 -95,33 -179,94 -274,118zm-997 941l58 -335c-198,-125 -215,-128 -190,-434 -80,-29 -102,-32 -131,-118 112,-77 196,-51 335,-38 -50,-175 -372,-511 -453,-840 -12,-144 -105,-260 -80,-450 67,129 106,318 176,463 180,373 483,665 514,751 75,213 -150,237 -187,418 40,54 418,212 -35,686l-8 -102zm-635 5818c60,-30 65,-43 140,-36 175,17 -33,16 132,46l-45 -31c164,-53 289,2 413,66 256,132 179,141 291,215 131,135 229,139 306,427 120,-135 61,-516 97,-713 53,-287 150,-362 224,-570 -245,-78 -570,-375 -669,-556 48,21 57,23 107,50 -192,-231 -377,-521 -295,-924 100,-491 420,-845 740,-1150 70,-66 234,-236 248,-379 36,-368 -877,-904 -1,-1799 216,-220 437,-395 703,-582 329,-231 471,-275 312,-793 -48,-156 -110,-337 -126,-507 -28,-282 63,-358 187,-479 -401,27 -750,199 -1059,409 -90,61 -179,140 -274,186 46,-124 171,-156 213,-268 -103,-104 -386,-265 -514,-361 -78,-59 -185,-150 -245,-208 -159,-152 -551,-502 -731,-581 -255,-112 -310,223 -339,443 -66,504 70,1074 188,1530 124,479 217,989 618,1120 136,-93 199,-218 328,-326 -55,261 -322,430 -474,598 10,89 8,89 58,147l113 98c80,-61 177,-208 289,-225 -678,817 -257,731 251,1238l341 391c-174,-61 -277,-211 -391,-316 -65,-60 -346,-274 -420,-302 -50,142 -142,274 -210,427 -446,1007 -233,1720 -202,2768 19,626 -202,701 -304,946z"/>
    <path class="fil3" d="M5470 3473c123,-40 170,47 169,169 -105,-10 -171,-60 -169,-169zm-856 -668c-8,-94 -10,-242 53,-314 102,-117 -40,35 94,-33 47,-24 7,-10 63,-38 264,-131 639,123 678,352 -92,-66 -205,-241 -361,-262 108,64 230,265 249,444 35,339 -133,327 -299,403l53 242c-54,-121 -209,-399 -278,-480 -135,-159 -289,-235 -416,-365l165 51zm159 -735c24,-188 193,-176 339,-83 81,51 209,186 242,287 -124,-16 -502,-132 -581,-204zm2145 -211c-101,177 -422,436 -606,542 -91,52 -166,87 -208,168 129,-14 214,-74 343,-31 -30,53 -4,30 -71,78 -21,22 1,6 -42,36 -5,3 -36,21 -47,28 -34,20 -46,28 -77,45 -14,193 -40,215 -169,298l46 210c-47,68 -78,86 -163,129 -57,33 -67,58 -126,96 14,-241 119,-61 87,-357 -22,-206 112,-172 169,-298 -82,-82 -136,-45 -187,-177 -13,-149 489,-407 677,-548 297,-222 357,-322 558,-627 -2,220 -119,288 -184,409zm-2325 -505c89,212 110,288 -23,483 -490,718 -425,734 254,1576 558,691 842,1256 -8,2031 -327,298 -268,243 -58,864 148,437 358,1393 -46,1786l-169 169 146 -48c-174,208 -550,358 -905,411 15,181 90,295 76,544 -11,201 -78,349 -98,537l33 -27c218,-191 140,-99 305,-182 88,-78 183,-124 332,-142l316 18c150,47 46,16 80,55 56,23 149,10 308,97 -152,-494 -137,-598 23,-1085 107,-326 230,-636 342,-970 252,-748 315,-1462 32,-2212 -186,87 -664,414 -866,411l796 -485c494,-321 251,-653 280,-869 8,-56 4,-33 18,-62l98 228c316,-195 -47,-473 -65,-860 58,104 97,245 166,328 401,-67 599,-591 793,-930 213,-372 401,-716 571,-1144 559,-1408 -1491,-317 -1942,-134 44,112 107,161 148,306 -85,-37 -153,-121 -211,-191 -141,-170 -487,-441 -723,-502z"/>
    <path class="fil3" d="M3513 3190c105,23 377,0 461,-30 -2,-159 -103,-156 -250,-131 -104,17 -208,52 -211,161z"/>
    <path class="fil3" d="M4130 3216c0,0 64,12 12,-74 -18,-30 -37,-23 -65,-28 -52,74 -42,116 52,102z"/>
   </g>
   <g>
    <path class="fil4" d="M2184 4217c27,-89 25,-70 81,-115 47,59 174,409 628,399 316,-7 528,-196 829,-211 316,-16 490,199 734,298 471,191 582,-276 673,-320 38,40 65,52 50,118 -16,73 1,13 -29,46l-253 233c-161,106 -359,140 -589,142 -30,170 10,448 36,607 315,-63 508,-519 624,-657 -2,356 -447,642 -605,773 43,561 220,1034 25,1605 -132,386 -511,835 -1044,775 -477,-54 -791,-484 -801,-1016 -11,-539 296,-989 353,-1470 -200,-112 -411,-441 -476,-774 87,137 286,593 498,674 54,-149 82,-422 89,-606 -163,-34 -348,-118 -461,-204 -72,-55 -134,-99 -183,-145 -36,-34 -40,-50 -71,-80 -24,-24 -5,-10 -41,-35l-68 -38zm1421 -1319c750,-213 1284,696 464,984 -368,129 -676,-101 -801,-294 -206,-319 65,-613 338,-690zm-200 -1686c-124,121 -215,197 -187,479 17,170 78,351 126,507 159,518 17,562 -312,793 -267,187 -488,362 -703,582 -876,894 37,1430 1,1799 -14,142 -178,312 -248,379 -320,305 -640,659 -740,1150 -82,403 103,693 295,924 44,106 394,322 555,406 211,110 477,200 732,248 614,117 1153,60 1620,-216l169 -169c403,-393 194,-1349 46,-1786 -211,-621 -269,-566 58,-864 850,-775 565,-1340 8,-2031 -679,-842 -744,-858 -254,-1576 133,-195 112,-271 23,-483 -204,-136 -891,-200 -1189,-142z"/>
    <path class="fil4" d="M4101 9497c-165,83 -87,-9 -305,182l-33 27c-153,782 709,900 879,714 118,-129 -10,-291 -43,-425 149,80 140,146 184,327 661,122 588,-404 353,-798 -159,-87 -252,-74 -308,-97 -386,-32 -413,28 -728,69z"/>
    <path class="fil4" d="M1728 9411c-68,-21 -60,-27 -94,-99 69,34 76,30 94,99zm-1087 -484c-213,105 -627,816 151,822 40,-135 107,-226 248,-261 -37,81 -13,32 -66,99 -67,84 -138,151 -98,271 110,336 1004,234 1003,-245 -78,-288 -176,-292 -306,-427l16 90c-114,-57 -70,-94 -294,-217 -111,-61 -240,-110 -381,-122 -165,-30 43,-29 -132,-46 -75,-7 -81,6 -140,36z"/>
    <path class="fil4" d="M4773 2070c79,72 457,188 581,204 -33,-101 -161,-236 -242,-287 -146,-92 -314,-104 -339,83z"/>
    <path class="fil4" d="M2273 2167c95,-25 178,-85 274,-118 116,-41 250,-13 338,-63 30,-251 -429,-182 -612,182z"/>
   </g>
   <path class="fil5" d="M3548 6279c41,-356 56,-579 42,-950 -13,-351 14,-589 29,-926 -121,34 -453,127 -536,179 32,778 -223,1198 -386,1865 -416,1703 1648,1919 1673,121 10,-708 -223,-1235 -153,-2014 -137,-81 -272,-180 -494,-155 -111,252 -51,1111 -70,1462 -6,114 -75,446 -94,401 -2,-4 -7,12 -11,18z"/>
   <path class="fil6" d="M4939 2984c-20,-82 17,-43 -54,-74 -4,101 -36,42 54,74z"/>
  </g>
 </g>
</svg>
